<svg width="20" height="23" viewBox="0 0 20 23" fill="none" xmlns="http://www.w3.org/2000/svg">
<path fill-rule="evenodd" clip-rule="evenodd" d="M5.22726 2.72703C6.49313 1.46116 8.21002 0.75 10.0002 0.75C11.7904 0.75 13.5073 1.46116 14.7732 2.72703C16.0391 3.9929 16.7502 5.70979 16.7502 7.5C16.7502 10.4571 17.4941 12.4344 18.2874 13.7092L18.2963 13.7235C18.656 14.3016 18.9367 14.7528 19.125 15.0795C19.2194 15.2431 19.3015 15.3943 19.3607 15.5248C19.3903 15.59 19.4213 15.6653 19.4449 15.7446C19.465 15.8119 19.4993 15.9441 19.4864 16.1019C19.4762 16.2273 19.4519 16.4183 19.3438 16.6129C19.2357 16.8075 19.0863 16.929 18.9853 17.0039C18.7863 17.1516 18.5513 17.1868 18.4595 17.2004C18.3256 17.2202 18.169 17.2307 18.003 17.2371C17.6727 17.25 17.2125 17.25 16.6306 17.25H3.3699C2.78793 17.25 2.32781 17.25 1.9975 17.2371C1.83148 17.2307 1.67487 17.2202 1.54096 17.2004C1.44919 17.1868 1.21418 17.1516 1.01518 17.0039C0.914138 16.929 0.764747 16.8075 0.656662 16.6129C0.548577 16.4183 0.524311 16.2273 0.514056 16.1019C0.501149 15.9441 0.535517 15.8119 0.555543 15.7446C0.579159 15.6653 0.610143 15.59 0.639741 15.5248C0.699018 15.3943 0.781118 15.2431 0.875427 15.0795C1.06372 14.7528 1.34439 14.3017 1.70402 13.7238L1.71311 13.7092C2.50635 12.4344 3.25023 10.4571 3.25023 7.5C3.25023 5.70979 3.96139 3.9929 5.22726 2.72703ZM10.0002 2.25C8.60785 2.25 7.27249 2.80312 6.28792 3.78769C5.30336 4.77226 4.75023 6.10761 4.75023 7.5C4.75023 10.7233 3.93506 12.9775 2.98669 14.5016C2.64969 15.0432 2.39826 15.4475 2.22459 15.7434C2.50942 15.7499 2.88984 15.75 3.38909 15.75H16.6114C17.1106 15.75 17.491 15.7499 17.7759 15.7434C17.6022 15.4475 17.3508 15.0432 17.0138 14.5017C16.0654 12.9775 15.2502 10.7233 15.2502 7.5C15.2502 6.10761 14.6971 4.77225 13.7125 3.78769C12.728 2.80312 11.3926 2.25 10.0002 2.25ZM18.2582 15.7136C18.2688 15.7105 18.2749 15.7094 18.2754 15.7096C18.2758 15.7098 18.2705 15.7113 18.2582 15.7136ZM1.7251 15.7096C1.72553 15.7094 1.73167 15.7105 1.74225 15.7136C1.72996 15.7113 1.72467 15.7098 1.7251 15.7096ZM6.79211 20.0037C7.06621 19.6931 7.54016 19.6636 7.85071 19.9377C8.42408 20.4438 9.17548 20.75 10.0002 20.75C10.825 20.75 11.5764 20.4438 12.1498 19.9377C12.4603 19.6636 12.9343 19.6931 13.2084 20.0037C13.4825 20.3143 13.4529 20.7882 13.1424 21.0623C12.3055 21.801 11.2044 22.25 10.0002 22.25C8.79609 22.25 7.695 21.801 6.85811 21.0623C6.54756 20.7882 6.51801 20.3143 6.79211 20.0037Z" fill="#222222" fill-opacity="0.8"/>
</svg>
