<svg width="40" height="40" viewBox="0 0 40 40" fill="none" xmlns="http://www.w3.org/2000/svg">
<circle cx="19.5449" cy="19.5449" r="19.5449" fill="#FFF2E6"/>
<path d="M11.5869 21.543C10.5778 21.543 9.64391 21.8606 8.9032 22.3899C7.91559 23.0925 7.29297 24.1801 7.29297 25.3927C7.29297 26.1146 7.5184 26.7979 7.91559 27.3753C8.6563 28.4918 10.0196 29.2425 11.5869 29.2425C12.6712 29.2425 13.6588 28.8864 14.4102 28.28C14.743 28.0298 15.0328 27.7218 15.2583 27.3753C15.6555 26.7979 15.8809 26.1146 15.8809 25.3927C15.8809 23.2657 13.9593 21.543 11.5869 21.543ZM13.8091 24.9789L11.5225 26.8749C11.3722 27 11.1683 27.0674 10.975 27.0674C10.7711 27.0674 10.5671 27 10.4061 26.8557L9.34334 25.9028C9.03203 25.6237 9.03203 25.1617 9.34334 24.8826C9.65465 24.6035 10.1699 24.6035 10.4812 24.8826L10.9965 25.3446L12.7141 23.9202C13.0361 23.6507 13.5514 23.67 13.852 23.9587C14.1526 24.2474 14.1311 24.7094 13.8091 24.9789Z" fill="#F49A40"/>
<path opacity="0.4" d="M27.1302 19.5672H29.2987V18.1813C29.2987 16.189 27.4845 14.5625 25.2623 14.5625H12.9387C10.7165 14.5625 8.90234 16.189 8.90234 18.1813V22.3871C9.64305 21.8578 10.577 21.5402 11.5861 21.5402C13.9585 21.5402 15.88 23.263 15.88 25.3899C15.88 26.1118 15.6546 26.7951 15.2574 27.3726C15.032 27.719 14.7421 28.027 14.4094 28.2773H25.2623C27.4845 28.2773 29.2987 26.6507 29.2987 24.6585V23.5132H27.259C26.0997 23.5132 25.0369 22.7529 24.9403 21.7134C24.8759 21.1071 25.1335 20.5392 25.5844 20.1446C25.9816 19.7789 26.529 19.5672 27.1302 19.5672Z" fill="#F49A40"/>
<path d="M22.16 10.9075V14.5648H12.9387C10.7165 14.5648 8.90234 16.1913 8.90234 18.1836V14.6514C8.90234 13.5061 9.68599 12.4859 10.8776 12.0817L19.4011 9.19437C20.7322 8.75164 22.16 9.62749 22.16 10.9075Z" fill="#F49A40"/>
<path d="M30.4357 20.552V22.5346C30.4357 23.064 29.9634 23.497 29.3623 23.5163H27.2582C26.0989 23.5163 25.0361 22.756 24.9395 21.7165C24.8751 21.1102 25.1327 20.5424 25.5836 20.1478C25.9808 19.782 26.5282 19.5703 27.1294 19.5703H29.3623C29.9634 19.5896 30.4357 20.0226 30.4357 20.552Z" fill="#F49A40"/>
<path d="M21.2492 19.3773H13.7348C13.2947 19.3773 12.9297 19.05 12.9297 18.6554C12.9297 18.2608 13.2947 17.9336 13.7348 17.9336H21.2492C21.6894 17.9336 22.0544 18.2608 22.0544 18.6554C22.0544 19.05 21.6894 19.3773 21.2492 19.3773Z" fill="#F49A40"/>
</svg>
