<svg width="40" height="37" viewBox="0 0 40 37" fill="none" xmlns="http://www.w3.org/2000/svg">
<ellipse cx="20.002" cy="18.5039" rx="20.002" ry="18.5039" fill="#FFDFF6"/>
<path opacity="0.4" d="M26.7109 13.2679H28.0505C27.8633 13.0219 27.6663 12.7942 27.4595 12.5664L26.7109 13.2679Z" fill="#D64BC2"/>
<path opacity="0.4" d="M26.4225 11.6013C26.1762 11.41 25.93 11.2278 25.6641 11.0547V12.2936L26.4225 11.6013Z" fill="#D64BC2"/>
<path opacity="0.4" d="M24.9265 14.6338C24.828 14.6338 24.7394 14.6156 24.6409 14.5791C24.4636 14.5062 24.3158 14.3787 24.237 14.2055C24.1976 14.1235 24.1779 14.0324 24.1779 13.9413V10.2966C24.1779 10.2875 24.1878 10.2784 24.1878 10.2601C22.9172 9.71344 21.4989 9.39453 20.0018 9.39453C14.5649 9.39453 10.1523 13.4766 10.1523 18.5063C10.1523 23.536 14.5649 27.6181 20.0018 27.6181C25.4387 27.6181 29.8512 23.536 29.8512 18.5063C29.8512 17.1213 29.5065 15.8092 28.9057 14.6247C28.8958 14.6247 28.886 14.6338 28.8663 14.6338H24.9265Z" fill="#D64BC2"/>
<path d="M27.4698 12.5621L30.3754 9.87472C30.6611 9.61053 30.6611 9.17326 30.3754 8.90908C30.0898 8.64489 29.617 8.64489 29.3314 8.90908L26.4258 11.5965C26.8001 11.8971 27.1448 12.2251 27.4698 12.5621Z" fill="#D64BC2"/>
<path d="M25.6668 10.3043C25.6668 9.93083 25.3319 9.62109 24.9281 9.62109C24.5341 9.62109 24.2189 9.91261 24.1992 10.2679C24.7114 10.4956 25.2039 10.7507 25.6668 11.0513V10.3043Z" fill="#D64BC2"/>
<path d="M29.607 13.9489C29.607 13.5754 29.2721 13.2656 28.8683 13.2656H28.0508C28.3758 13.6938 28.6614 14.1493 28.8978 14.623C29.2918 14.6048 29.607 14.3133 29.607 13.9489Z" fill="#D64BC2"/>
<path d="M21.7255 18.3423L20.7406 18.0234V16.0006H20.8193C21.3217 16.0006 21.7255 16.4106 21.7255 16.9118C21.7255 17.2854 22.0604 17.5952 22.4642 17.5952C22.868 17.5952 23.2029 17.2854 23.2029 16.9118C23.2029 15.6544 22.1392 14.6338 20.8193 14.6338H20.7406V14.406C20.7406 14.0325 20.4057 13.7227 20.0019 13.7227C19.598 13.7227 19.2631 14.0325 19.2631 14.406V14.6338H18.9677C17.7759 14.6338 16.8008 15.5632 16.8008 16.7113C16.8008 18.0416 17.638 18.4699 18.2782 18.6795L19.2631 18.9984V21.0212H19.1844C18.682 21.0212 18.2782 20.6112 18.2782 20.11C18.2782 19.7364 17.9433 19.4266 17.5395 19.4266C17.1357 19.4266 16.8008 19.7364 16.8008 20.11C16.8008 21.3674 17.8645 22.388 19.1844 22.388H19.2631V22.6157C19.2631 22.9893 19.598 23.2991 20.0019 23.2991C20.4057 23.2991 20.7406 22.9893 20.7406 22.6157V22.388H21.036C22.2278 22.388 23.2029 21.4586 23.2029 20.3105C23.2029 18.971 22.3657 18.5428 21.7255 18.3423ZM18.7608 17.3765C18.4259 17.2671 18.2782 17.2033 18.2782 16.7022C18.2782 16.3104 18.5934 15.9915 18.9677 15.9915H19.2631V17.5314L18.7608 17.3765ZM21.036 21.0121H20.7406V19.4722L21.2429 19.6362C21.5778 19.7455 21.7255 19.8093 21.7255 20.3105C21.7255 20.6932 21.4103 21.0121 21.036 21.0121Z" fill="#D64BC2"/>
</svg>
