<svg width="39" height="38" viewBox="0 0 39 38" fill="none" xmlns="http://www.w3.org/2000/svg">
<ellipse cx="19.5" cy="19" rx="19.5" ry="19" fill="#DDFFE7"/>
<path d="M28.1122 15.2602H25.2891C24.0696 15.2602 23.3398 14.5491 23.3398 13.3609V10.6102C23.3398 9.422 24.0696 8.71094 25.2891 8.71094H28.1122C29.3317 8.71094 30.0614 9.422 30.0614 10.6102V13.3609C30.0614 14.5491 29.3317 15.2602 28.1122 15.2602ZM28.3234 12.1633C28.2082 12.0511 28.0546 11.9949 27.9009 11.9949C27.7473 11.9949 27.5937 12.0511 27.4784 12.1633L27.3056 12.3317V10.236C27.3056 9.90851 27.0367 9.64654 26.7006 9.64654C26.3646 9.64654 26.0957 9.90851 26.0957 10.236V12.3317L25.9229 12.1633C25.6924 11.9388 25.3083 11.9388 25.0779 12.1633C24.8474 12.3879 24.8474 12.7621 25.0779 12.9867L26.2781 14.1562C26.3262 14.2029 26.3934 14.2404 26.4606 14.2684C26.4798 14.2778 26.499 14.2778 26.5182 14.2871C26.5662 14.3059 26.6142 14.3152 26.6718 14.3152C26.691 14.3152 26.7102 14.3152 26.7294 14.3152C26.7967 14.3152 26.8543 14.3059 26.9215 14.2778C26.9311 14.2778 26.9311 14.2778 26.9407 14.2778C27.0079 14.2497 27.0655 14.2123 27.1135 14.1655C27.1231 14.1562 27.1231 14.1562 27.1327 14.1562L28.333 12.9867C28.5635 12.7621 28.5635 12.3879 28.3234 12.1633Z" fill="#27C153"/>
<path opacity="0.4" d="M29.103 15.0417V16.1925H9.89844V14.8265C9.89844 12.684 11.6845 10.9531 13.8834 10.9531H23.3416V13.3576C23.3416 14.5459 24.0714 15.2569 25.2909 15.2569H28.1139C28.498 15.2569 28.8245 15.1914 29.103 15.0417Z" fill="#27C153"/>
<path d="M9.89844 16.1953V23.1749C9.89844 25.3175 11.6845 27.0483 13.8834 27.0483H25.118C27.317 27.0483 29.103 25.3175 29.103 23.1749V16.1953H9.89844ZM15.6598 23.9141H13.7393C13.3457 23.9141 13.0192 23.596 13.0192 23.2124C13.0192 22.8288 13.3457 22.5107 13.7393 22.5107H15.6598C16.0535 22.5107 16.38 22.8288 16.38 23.2124C16.38 23.596 16.0535 23.9141 15.6598 23.9141ZM21.9013 23.9141H18.0604C17.6667 23.9141 17.3402 23.596 17.3402 23.2124C17.3402 22.8288 17.6667 22.5107 18.0604 22.5107H21.9013C22.295 22.5107 22.6214 22.8288 22.6214 23.2124C22.6214 23.596 22.295 23.9141 21.9013 23.9141Z" fill="#27C153"/>
</svg>
