<svg width="39" height="39" viewBox="0 0 39 39" fill="none" xmlns="http://www.w3.org/2000/svg">
<circle cx="19.5" cy="19.5" r="19.5" fill="#FFEBEA"/>
<path opacity="0.4" d="M24.3018 15.4197C24.1194 15.4197 23.937 15.3525 23.7929 15.2085C23.5145 14.93 23.5145 14.4691 23.7929 14.1907L25.7614 12.2222C24.0714 10.7818 21.8917 9.89844 19.5007 9.89844C14.2003 9.89844 9.89844 14.2003 9.89844 19.5007C9.89844 24.8012 14.2003 29.103 19.5007 29.103C24.8012 29.103 29.103 24.8012 29.103 19.5007C29.103 17.1097 28.2196 14.93 26.7792 13.24L24.8108 15.2085C24.6667 15.3525 24.4843 15.4197 24.3018 15.4197Z" fill="#FF4437"/>
<path d="M21.18 19.3254L20.2198 18.9893V16.8576H20.2966C20.7863 16.8576 21.18 17.2897 21.18 17.8178C21.18 18.2115 21.5065 18.538 21.9002 18.538C22.2939 18.538 22.6204 18.2115 22.6204 17.8178C22.6204 16.4927 21.5833 15.4173 20.2966 15.4173H20.2198V15.1772C20.2198 14.7835 19.8933 14.457 19.4996 14.457C19.106 14.457 18.7795 14.7835 18.7795 15.1772V15.4173H18.4914C17.3295 15.4173 16.3789 16.3967 16.3789 17.6066C16.3789 19.0085 17.1951 19.4598 17.8192 19.6807L18.7795 20.0167V22.1485H18.7027C18.213 22.1485 17.8192 21.7164 17.8192 21.1882C17.8192 20.7945 17.4928 20.4681 17.0991 20.4681C16.7054 20.4681 16.3789 20.7945 16.3789 21.1882C16.3789 22.5133 17.416 23.5888 18.7027 23.5888H18.7795V23.8289C18.7795 24.2225 19.106 24.549 19.4996 24.549C19.8933 24.549 20.2198 24.2225 20.2198 23.8289V23.5888H20.5079C21.6697 23.5888 22.6204 22.6094 22.6204 21.3995C22.6204 19.9879 21.8042 19.5366 21.18 19.3254ZM18.2897 18.3075C17.9633 18.1923 17.8192 18.1251 17.8192 17.597C17.8192 17.1841 18.1265 16.848 18.4914 16.848H18.7795V18.4708L18.2897 18.3075ZM20.5079 22.1388H20.2198V20.5161L20.7095 20.6889C21.036 20.8041 21.18 20.8714 21.18 21.3995C21.18 21.8028 20.8728 22.1388 20.5079 22.1388Z" fill="#FF4437"/>
<path d="M29.7645 9.61928C29.6877 9.44644 29.5532 9.30241 29.3708 9.22559C29.2844 9.18718 29.1884 9.16797 29.0923 9.16797H25.2514C24.8577 9.16797 24.5312 9.49445 24.5312 9.88814C24.5312 10.2818 24.8577 10.6083 25.2514 10.6083H27.3543L25.7508 12.2119C26.1156 12.5288 26.4517 12.8648 26.7686 13.2297L28.3722 11.6262V13.7387C28.3722 14.1323 28.6986 14.4588 29.0923 14.4588C29.486 14.4588 29.8125 14.1323 29.8125 13.7387V9.89774C29.8221 9.80172 29.8029 9.7153 29.7645 9.61928Z" fill="#FF4437"/>
</svg>
