<svg width="20" height="21" viewBox="0 0 20 21" fill="none" xmlns="http://www.w3.org/2000/svg">
<path fill-rule="evenodd" clip-rule="evenodd" d="M10 2.375C10.3452 2.375 10.625 2.65482 10.625 3V11.4911L13.7247 8.39139C13.9688 8.14731 14.3645 8.14731 14.6086 8.39139C14.8527 8.63547 14.8527 9.0312 14.6086 9.27528L10.4419 13.4419C10.1979 13.686 9.80214 13.686 9.55806 13.4419L5.39139 9.27528C5.14731 9.0312 5.14731 8.63547 5.39139 8.39139C5.63547 8.14731 6.0312 8.14731 6.27528 8.39139L9.375 11.4911V3C9.375 2.65482 9.65482 2.375 10 2.375ZM2.5 12.375C2.84518 12.375 3.125 12.6548 3.125 13V14C3.125 14.7104 3.12549 15.2056 3.15699 15.5911C3.18789 15.9693 3.2455 16.1866 3.32936 16.3512C3.50913 16.704 3.79596 16.9909 4.14877 17.1706C4.31337 17.2545 4.53067 17.3121 4.9089 17.343C5.29443 17.3745 5.78962 17.375 6.5 17.375H13.5C14.2104 17.375 14.7056 17.3745 15.0911 17.343C15.4693 17.3121 15.6866 17.2545 15.8512 17.1706C16.204 16.9909 16.4909 16.704 16.6706 16.3512C16.7545 16.1866 16.8121 15.9693 16.843 15.5911C16.8745 15.2056 16.875 14.7104 16.875 14V13C16.875 12.6548 17.1548 12.375 17.5 12.375C17.8452 12.375 18.125 12.6548 18.125 13V14.0268C18.125 14.7041 18.125 15.2505 18.0889 15.6929C18.0516 16.1484 17.973 16.5485 17.7844 16.9187C17.4848 17.5067 17.0067 17.9848 16.4187 18.2844C16.0485 18.473 15.6484 18.5516 15.1929 18.5889C14.7505 18.625 14.2041 18.625 13.5268 18.625H6.47323C5.79587 18.625 5.24953 18.625 4.80711 18.5889C4.35158 18.5516 3.95146 18.473 3.58128 18.2844C2.99327 17.9848 2.51521 17.5067 2.2156 16.9187C2.02699 16.5485 1.94835 16.1484 1.91114 15.6929C1.87499 15.2505 1.87499 14.7041 1.875 14.0268L1.875 13C1.875 12.6548 2.15482 12.375 2.5 12.375Z" fill="#006D85"/>
</svg>
