<svg width="112" height="48" viewBox="0 0 112 48" fill="none" xmlns="http://www.w3.org/2000/svg">
<g clip-path="url(#clip0_3969_676)">
<path fill-rule="evenodd" clip-rule="evenodd" d="M40.9641 7.03592C36.6257 2.68366 30.6327 0 24 0C17.3673 0 11.3743 2.68366 7.03592 7.03592C2.68366 11.3743 0 17.3673 0 24C0 30.6327 2.68366 36.6257 7.03592 40.9641C11.3743 45.3024 17.3812 48 24 48C30.6327 48 36.6257 45.3163 40.9641 40.9641C45.3024 36.6257 48 30.6188 48 24C48 17.3673 45.3163 11.3743 40.9641 7.03592Z" fill="#404C75"/>
<path fill-rule="evenodd" clip-rule="evenodd" d="M23.9981 0.945312C30.3665 0.945312 36.1232 3.53164 40.3086 7.70313C44.4801 11.8746 47.0664 17.6452 47.0664 24.0137C47.0664 30.3822 44.4801 36.1388 40.3086 40.3242C36.1371 44.4957 30.3665 47.082 23.9981 47.082C17.6296 47.082 11.8729 44.4957 7.68751 40.3242C3.51601 36.1527 0.929688 30.3822 0.929688 24.0137C0.929688 17.6452 3.51601 11.8885 7.68751 7.70313C11.8729 3.51773 17.6296 0.945312 23.9981 0.945312Z" fill="#C9C069"/>
<path fill-rule="evenodd" clip-rule="evenodd" d="M36.6243 11.3748C33.3983 8.1488 28.9348 6.14648 23.9985 6.14648C19.0623 6.14648 14.5988 8.1488 11.3728 11.3748C8.14685 14.6007 6.14453 19.0642 6.14453 24.0005C6.14453 28.9368 8.14685 33.4002 11.3728 36.6262C14.5988 39.8522 19.0623 41.8545 23.9985 41.8545C28.9348 41.8545 33.3983 39.8522 36.6243 36.6262C39.8502 33.4002 41.8525 28.9368 41.8525 24.0005C41.8525 19.0642 39.8641 14.6007 36.6243 11.3748Z" fill="#404C75"/>
<path fill-rule="evenodd" clip-rule="evenodd" d="M36.6275 11.3746C35.6125 10.3595 34.4862 9.46962 33.2486 8.71875L6.30078 26.3364C6.82917 30.3271 8.66463 33.9146 11.3761 36.6261C14.6021 39.852 19.0656 41.8543 24.0018 41.8543C24.3912 41.8543 24.7666 41.8404 25.142 41.8126L39.0192 14.3225C38.324 13.2657 37.5314 12.2645 36.6275 11.3746Z" fill="#5D72A7"/>
<path fill-rule="evenodd" clip-rule="evenodd" d="M10.6358 20.9551C11.4423 21.3305 11.7621 22.5959 11.637 24.1671C11.4284 26.7813 11.9846 30.1602 15.2662 31.8288C14.7378 29.9655 12.5686 29.4371 13.9035 26.7535C14.0564 27.4487 14.2233 27.4348 14.3902 27.7407C17.6995 33.7616 23.1364 30.9667 23.8038 40.2413C21.4678 36.5565 15.1827 35.3745 12.3044 32.3154C10.1213 30.0072 9.16188 26.9342 10.2326 22.4151C10.3438 21.9423 10.5107 21.7059 10.6358 20.9551Z" fill="white"/>
<path fill-rule="evenodd" clip-rule="evenodd" d="M25.0001 20.2036C15.948 16.9221 15.3223 25.9325 22.4138 32.5374C17.4358 30.8827 11.3316 23.9163 15.4613 18.4794C18.9932 14.4887 22.7336 16.8942 25.0001 20.2036Z" fill="white"/>
<path fill-rule="evenodd" clip-rule="evenodd" d="M24.9297 22.2764C31.8683 20.7051 32.7721 27.6159 25.7362 32.6495C31.1869 31.1756 35.5114 25.7666 32.1603 21.3587C30.1023 19.0783 26.7512 19.6066 24.9297 22.2764Z" fill="white"/>
<path fill-rule="evenodd" clip-rule="evenodd" d="M21.6638 10.3027C23.1934 10.3027 24.4448 11.5403 24.4448 13.0837C24.4448 14.6133 23.2073 15.8647 21.6638 15.8647C20.1343 15.8647 18.8828 14.6272 18.8828 13.0837C18.8967 11.5542 20.1343 10.3027 21.6638 10.3027Z" fill="white"/>
<path fill-rule="evenodd" clip-rule="evenodd" d="M28.4087 14.9336C29.5906 14.9336 30.5362 15.893 30.5362 17.0611C30.5362 18.243 29.5767 19.1885 28.4087 19.1885C27.2268 19.1885 26.2812 18.2291 26.2812 17.0611C26.2812 15.8791 27.2268 14.9336 28.4087 14.9336Z" fill="white"/>
<path fill-rule="evenodd" clip-rule="evenodd" d="M21.5821 23.959C21.1649 27.4213 22.472 30.7029 24.1962 32.9138C24.3631 29.1038 25.5172 25.9613 27.3666 24.1537C26.0873 24.6959 24.5717 25.8223 23.7096 28.1722C22.8196 27.3379 22.3886 26.6983 21.5821 23.959Z" fill="white"/>
<path fill-rule="evenodd" clip-rule="evenodd" d="M23.9302 23.6393C24.4308 23.7645 24.7367 24.3346 24.5838 24.9047C24.4447 25.4887 23.9163 25.8502 23.4157 25.7251C22.9152 25.5999 22.6093 25.0298 22.7622 24.4597C22.9013 23.8896 23.4297 23.5142 23.9302 23.6393Z" fill="white"/>
<path fill-rule="evenodd" clip-rule="evenodd" d="M37.5586 20.9551C36.7522 21.3305 36.4323 22.5959 36.5575 24.1671C36.7661 26.7813 36.2099 30.1602 32.9283 31.8288C33.4567 29.9655 35.6259 29.4371 34.291 26.7535C34.138 27.4487 33.9712 27.4348 33.8043 27.7407C30.4949 33.7616 25.0581 30.9667 24.3906 40.2413C26.7267 36.5565 33.0117 35.3745 35.89 32.3154C38.0731 30.0072 39.0326 26.9342 37.9619 22.4151C37.8506 21.9423 37.6838 21.7059 37.5586 20.9551Z" fill="white"/>
<path d="M42.2558 16.0051L43.3125 15.5184L43.4099 15.7409C43.5767 15.6714 43.6741 15.6157 43.827 15.5462C43.688 15.2403 43.5489 14.9344 43.396 14.6146C43.2291 14.6841 43.1318 14.7397 42.9788 14.8093L43.0762 15.0317L42.0194 15.5184L41.9081 15.282C41.7413 15.3516 41.6439 15.4072 41.4771 15.4767C41.63 15.7965 41.7691 16.1163 41.922 16.4361C42.0889 16.3666 42.1862 16.311 42.3531 16.2415L42.2558 16.0051ZM41.3798 13.8776C41.2963 13.7247 41.2129 13.5856 41.1295 13.4188C40.323 13.8498 41.1573 15.3376 41.936 14.9066C42.3948 14.6563 42.2419 14.267 42.0889 13.8915C42.0194 13.7108 41.9638 13.5578 42.1167 13.5022C42.3392 13.4049 42.6312 13.8776 42.3948 14.0167C42.4782 14.1696 42.5478 14.2948 42.6451 14.4616C43.4377 14.0306 42.659 12.6123 41.8803 13.0572C41.491 13.2797 41.491 13.6134 41.6857 14.0306C41.783 14.2253 41.8386 14.3782 41.7135 14.4477C41.4632 14.5729 41.1434 14.0028 41.3798 13.8776ZM40.5733 12.4732L40.2952 12.0839L40.8792 11.9587L40.5733 12.4732ZM40.1561 13.1407L40.462 13.5717L40.5315 13.53L41.6439 11.5694L41.5049 11.3886L39.294 11.8058L39.2245 11.8475L39.5304 12.2786L39.8224 12.2229L40.2952 12.8904L40.1561 13.1407ZM38.2372 10.7212L38.8351 10.1928C38.8769 10.2484 38.9186 10.2901 38.9742 10.3458L38.6683 11.2218L39.0576 11.6667L39.1271 11.6111L39.447 10.5821C39.9197 10.7212 40.2117 10.457 40.5315 10.1789C40.4064 10.0399 40.2952 9.9008 40.17 9.76175C39.878 10.012 39.586 10.304 39.2384 9.9008L39.2106 9.87299L39.8085 9.35851C39.6833 9.21946 39.5721 9.08041 39.447 8.94136L37.8618 10.304C38.0008 10.4431 38.1121 10.5821 38.2372 10.7212ZM37.681 9.49756L38.4597 8.64935L38.6405 8.81621C38.7656 8.67716 38.8351 8.60764 38.9603 8.46859C38.71 8.2322 38.4597 8.00972 38.2094 7.77334C38.0843 7.89848 38.0147 7.98191 37.8896 8.12096L38.0704 8.28782L37.2917 9.13603L37.097 8.95526C36.9719 9.08041 36.9023 9.16384 36.7772 9.30289C37.0414 9.53927 37.2917 9.77566 37.5559 10.0259C37.681 9.8869 37.7505 9.80347 37.8757 9.67832L37.681 9.49756ZM37.2361 7.00857C37.097 6.89733 36.9441 6.78609 36.805 6.68875L35.5397 8.35735C35.8734 8.60764 36.2349 8.88574 36.5686 9.13603C36.6799 8.99698 36.7494 8.89964 36.8606 8.74669L36.2627 8.28782C36.805 7.57867 36.5825 7.87067 37.2361 7.00857ZM35.3867 6.2716C35.5675 6.39675 35.3728 6.67485 35.2059 6.56361L34.9278 6.38284L35.1225 6.09084L35.3867 6.2716ZM35.0391 6.98076C35.2198 7.1059 35.0252 7.39791 34.8444 7.27276L34.4829 7.03638L34.6775 6.74437L35.0391 6.98076ZM35.8734 6.79999C36.068 6.49408 35.9846 6.10474 35.6787 5.91007L34.9278 5.4234L33.7876 7.16152L34.608 7.70381C34.9696 7.9402 35.3172 7.81505 35.5118 7.50914C35.6092 7.35619 35.637 7.17543 35.5397 7.00857C35.6787 6.99466 35.8039 6.89733 35.8734 6.79999ZM32.7309 6.10474C32.5918 6.03522 32.4806 5.88226 32.564 5.72931L33.1758 4.49176C33.0229 4.42224 32.8699 4.33881 32.7169 4.26928L32.0912 5.52073C31.8827 5.93788 32.1329 6.35503 32.5084 6.5358C32.8977 6.73047 33.3705 6.67485 33.5791 6.2577L34.2048 5.00625C34.0518 4.93672 33.8989 4.85329 33.7459 4.76986L33.1341 6.00741C33.0507 6.16036 32.8699 6.16036 32.7309 6.10474ZM30.9927 4.72815L30.6312 4.603C30.6868 4.43614 30.7703 4.19976 30.8259 4.0329C30.9371 4.07461 31.0762 4.11633 31.1874 4.15804C31.4794 4.26928 31.2708 4.82548 30.9927 4.72815ZM30.2975 5.57635L30.4643 5.07577L30.8259 5.20092C31.7714 5.52073 32.272 4.06071 31.3265 3.72699C31.0344 3.62966 30.7424 3.53232 30.4504 3.43499C30.228 4.10242 29.9916 4.75596 29.7691 5.40949C29.9499 5.45121 30.1306 5.50683 30.2975 5.57635ZM28.3647 4.36662C28.1839 4.3249 28.0449 4.28319 27.8641 4.22757C27.6138 5.11749 29.2546 5.53464 29.491 4.68643C29.63 4.18585 29.2546 4.01899 28.8653 3.86604C28.6845 3.79651 28.5455 3.72699 28.6011 3.57404C28.6845 3.33765 29.2268 3.4628 29.1573 3.72699C29.338 3.76871 29.4632 3.81042 29.6439 3.86604C29.8942 3.00393 28.323 2.57288 28.1005 3.44889C27.9893 3.89385 28.2395 4.11633 28.6706 4.26928C28.8653 4.33881 29.0321 4.40833 28.9904 4.54738C28.9348 4.79767 28.2952 4.63081 28.3647 4.36662ZM27.6416 2.76755C27.155 2.68412 26.8351 2.6285 26.3485 2.54507C26.2372 3.22641 26.1121 3.92166 26.0008 4.603C26.4736 4.68643 26.8351 4.74205 27.3218 4.82548C27.3496 4.67253 27.3774 4.50567 27.4052 4.35271C27.0993 4.29709 26.9186 4.26928 26.6127 4.21366C26.6405 4.08852 26.6544 3.97728 26.6683 3.85214L27.3635 3.97728C27.3913 3.82433 27.4191 3.67137 27.447 3.50451L26.7517 3.37937L26.8073 3.08736C27.1132 3.14298 27.2662 3.17079 27.5721 3.21251C27.586 3.07346 27.6138 2.9205 27.6416 2.76755ZM24.805 3.4628L24.4296 3.44889C24.4435 3.28203 24.4435 3.10127 24.4574 2.9205C24.5825 2.9205 24.7077 2.93441 24.8328 2.93441C25.1248 2.96222 25.097 3.4767 24.805 3.4628ZM25.2222 3.83823C25.7645 3.50451 25.6671 2.50335 24.8467 2.46164C24.5408 2.44773 24.2349 2.43383 23.929 2.41992C23.9012 3.11517 23.8595 3.81042 23.8317 4.50567C23.9985 4.51957 24.1932 4.51957 24.3601 4.53348L24.3879 3.92166L24.666 3.93556L24.9997 4.56129L25.5976 4.5891V4.50567L25.2222 3.83823ZM22.2187 4.603L22.4134 4.57519L22.1214 2.50335C21.9406 2.53116 21.7598 2.55897 21.5791 2.57288L21.7181 3.58794L20.5223 2.71193L20.3276 2.73974L20.6196 4.82548C20.8004 4.79767 20.9811 4.76986 21.1619 4.75596L21.0229 3.7409L22.2187 4.603ZM18.3531 4.26928C18.1723 3.54623 19.1874 3.28203 19.3682 4.00509C19.5489 4.74205 18.5339 5.00625 18.3531 4.26928ZM19.8966 3.87994C19.535 2.47554 17.4632 3.01784 17.8247 4.40833C18.1723 5.81274 20.2581 5.28435 19.8966 3.87994ZM16.2674 4.40833L16.8514 5.91007C17.0182 5.84055 17.1851 5.78493 17.338 5.7154L16.754 4.21366L17.2268 4.0329C17.1712 3.87994 17.1156 3.7409 17.046 3.58794L15.5999 4.15804C15.6555 4.311 15.7112 4.45005 15.7807 4.603L16.2674 4.40833ZM14.7934 6.11865C14.6266 6.20208 14.4875 6.2577 14.3207 6.34113C14.71 7.17543 16.2395 6.42456 15.8502 5.63197C15.6277 5.1592 15.2384 5.28435 14.8351 5.4234C14.6544 5.47902 14.5014 5.52073 14.4458 5.36778C14.3624 5.13139 14.849 4.8672 14.9742 5.11749C15.1411 5.03406 15.2662 4.97844 15.4331 4.89501C15.0576 4.07461 13.5837 4.76986 13.9869 5.57635C14.1816 5.9796 14.5292 5.9935 14.9464 5.82664C15.1411 5.74321 15.3079 5.7015 15.3635 5.82664C15.5026 6.07693 14.9047 6.35503 14.7934 6.11865ZM13.8896 6.8139L13.2778 5.84055L13.4864 5.7015C13.389 5.54854 13.3334 5.45121 13.2361 5.31216C12.9441 5.49292 12.666 5.67369 12.374 5.85445C12.4713 6.00741 12.5269 6.09084 12.6243 6.24379L12.8328 6.11865L13.4446 7.092L13.2222 7.23105C13.3195 7.384 13.3751 7.46743 13.4725 7.63429C13.7784 7.43962 14.0704 7.25886 14.3763 7.06419C14.2789 6.91123 14.2233 6.8139 14.126 6.66094L13.8896 6.8139ZM12.2627 8.46859L11.8039 7.81505C11.8595 7.77334 11.9151 7.73163 11.9707 7.68991L12.8189 8.07925L13.3056 7.73162L13.2639 7.6621L12.2627 7.24495C12.4435 6.78609 12.2071 6.46627 11.9568 6.11865C11.8039 6.22989 11.6509 6.32722 11.5119 6.43846C11.7343 6.75828 11.9985 7.06419 11.5536 7.384L11.5258 7.41181L11.0669 6.77218C10.9139 6.88342 10.7749 6.98076 10.6219 7.092L11.8178 8.7884C11.9707 8.67716 12.1098 8.57983 12.2627 8.46859ZM9.92668 7.63429C9.57906 7.96801 9.32877 8.20439 8.98114 8.53811C9.46782 9.03869 9.95449 9.53927 10.4412 10.0399C10.7888 9.70613 11.053 9.45584 11.4006 9.10822C11.2894 8.99698 11.1781 8.87183 11.0669 8.76059C10.8444 8.98307 10.7054 9.10822 10.4968 9.31679C10.4134 9.23336 10.3299 9.13603 10.2465 9.0526L10.761 8.55202C10.6497 8.44078 10.5385 8.32954 10.4273 8.20439L9.91278 8.70497L9.7042 8.4964C9.92668 8.28782 10.0379 8.17658 10.2604 7.9541C10.1492 7.87068 10.0379 7.74553 9.92668 7.63429ZM8.32761 9.9008C8.46666 9.73394 8.73086 9.95642 8.59181 10.1233L8.36933 10.3736L8.10513 10.1511L8.32761 9.9008ZM8.98114 10.3458C9.12019 10.1789 9.39829 10.4153 9.25924 10.5682L8.98114 10.8881L8.71695 10.6517L8.98114 10.3458ZM8.91162 9.48365C8.63352 9.24727 8.23028 9.28898 7.99389 9.55318L7.40988 10.2345L8.99505 11.5972L9.63468 10.8602C9.91278 10.5404 9.82935 10.1789 9.55125 9.94252C9.4122 9.81737 9.24534 9.77566 9.06457 9.85909C9.07848 9.72004 8.99505 9.56708 8.91162 9.48365ZM7.06226 10.6795L6.10281 11.9448C6.24186 12.0561 6.3392 12.1256 6.47825 12.2368L6.95102 11.625L7.66017 13.238L7.7297 13.2936L8.74476 11.9587C8.60571 11.8475 8.50838 11.778 8.36933 11.6667L7.84094 12.362L7.14569 10.749L7.06226 10.6795ZM6.17234 12.6262L6.13062 12.5984L5.58833 12.5149L5.46318 12.9738L5.5049 13.0016L5.96376 12.9321L6.17234 12.6262ZM5.35195 15.435C4.6706 15.1013 5.14337 14.1557 5.82471 14.4894C6.50606 14.8232 6.03329 15.7687 5.35195 15.435ZM6.0611 14.0028C4.76794 13.3631 3.80849 15.282 5.10166 15.9217C6.40872 16.5613 7.36817 14.6424 6.0611 14.0028Z" fill="white"/>
<path d="M4.49137 23.332L4.50558 24.1419C4.50558 24.4687 4.40612 24.7387 4.19299 24.9234C3.97987 25.1223 3.72411 25.2218 3.42574 25.2218C3.12736 25.236 2.87161 25.1365 2.64427 24.9518C2.41694 24.7671 2.31748 24.4971 2.30327 24.1703L2.28906 23.3604L4.49137 23.332ZM2.74373 23.8151V24.1561C2.74373 24.3408 2.81477 24.4971 2.94265 24.6108C3.07053 24.7245 3.24103 24.7671 3.42574 24.7671C3.61045 24.7671 3.76674 24.7102 3.89462 24.5966C4.02249 24.4829 4.07933 24.3408 4.07933 24.1419V23.8009L2.74373 23.8151Z" fill="white"/>
<path d="M45.3134 23.9294L45.3276 23.6168L45.697 23.6311L45.6544 24.7251L45.2849 24.7109L45.2991 24.3983L43.8499 24.3415L43.8357 24.6256L43.4805 24.6114L43.5231 23.5742L43.8925 23.5884L43.8783 23.8726L45.3134 23.9294Z" fill="white"/>
<path d="M2.90213 26.9695L2.81688 26.0602L2.43325 25.9323L2.39062 25.4492H2.44746L4.67818 26.2449L4.69239 26.458L2.66059 27.6657H2.60375L2.56113 27.1826L2.90213 26.9695ZM3.96776 26.4012L3.21471 26.1738L3.27155 26.7706L3.96776 26.4012Z" fill="white"/>
<path d="M44.8589 26.729L44.8873 26.2885C44.9868 26.2885 45.0578 26.2459 45.1147 26.1749C45.1715 26.0896 45.1999 25.9902 45.2141 25.8765C45.2283 25.5923 45.1573 25.4502 44.9726 25.436C44.9299 25.436 44.8873 25.436 44.8447 25.4644C44.8021 25.4786 44.7737 25.5071 44.7594 25.5355C44.7452 25.5639 44.7168 25.5923 44.7026 25.6492C44.6884 25.6918 44.6742 25.7344 44.6742 25.777C44.6742 25.8054 44.66 25.8481 44.6458 25.9049C44.5605 26.4306 44.3332 26.6864 43.9638 26.6579C43.7364 26.6437 43.5659 26.5443 43.4665 26.388C43.367 26.2175 43.3244 26.0186 43.3386 25.777C43.3528 25.6634 43.367 25.5639 43.3954 25.4787C43.4239 25.3792 43.4665 25.2939 43.5233 25.2229C43.5801 25.1519 43.6512 25.0808 43.7506 25.0382C43.8359 24.9956 43.9496 24.9814 44.0632 24.9956L44.0348 25.436C43.9496 25.436 43.8785 25.4787 43.8359 25.5497C43.7933 25.6207 43.7649 25.706 43.7506 25.8054C43.7364 25.9049 43.7649 25.9902 43.8075 26.0754C43.8501 26.1464 43.9069 26.1891 43.9922 26.2033C44.0774 26.2033 44.1485 26.1749 44.1911 26.1038C44.2337 26.0328 44.2621 25.9333 44.2906 25.8054C44.319 25.6776 44.3332 25.5639 44.3616 25.4787C44.39 25.3934 44.4327 25.3081 44.4753 25.2229C44.5321 25.1376 44.6032 25.0808 44.6884 25.0382C44.7737 24.9956 44.8873 24.9814 45.001 24.9956C45.1289 25.0098 45.2283 25.0382 45.3136 25.095C45.3988 25.1519 45.4699 25.2229 45.5125 25.3081C45.5551 25.3934 45.5835 25.4929 45.5977 25.5923C45.6119 25.6918 45.6262 25.8054 45.612 25.9191C45.5977 26.1607 45.5125 26.3596 45.3846 26.5301C45.2567 26.6722 45.0862 26.7432 44.8589 26.729Z" fill="white"/>
<path d="M3.62629 28.4043L4.36513 28.5038L5.11817 28.6458L5.21763 29.1289L5.14659 29.1431L2.85903 28.66L2.81641 28.4753L4.72034 27.1255L4.79138 27.1113L4.89084 27.5944L4.26567 28.0207L3.62629 28.4043Z" fill="white"/>
<path d="M45.0002 27.5234L44.8155 28.4185L45.128 28.6601L45.0286 29.1432L44.9718 29.129L43.082 27.6939L43.1247 27.4808L45.4264 26.9551L45.4833 26.9693L45.3838 27.4382L45.0002 27.5234ZM43.8067 27.7365L44.446 28.177L44.5739 27.5802L43.8067 27.7365Z" fill="white"/>
<path d="M5.45729 29.7823L3.75227 30.2796L4.00803 31.1605L3.61019 31.2741L3.22656 29.9528L5.32941 29.3418L5.45729 29.7823Z" fill="white"/>
<path d="M4.62101 32.668L4.23738 31.8439H3.83954L3.64062 31.4034L3.69746 31.375L6.07027 31.3892L6.15552 31.5881L4.62101 33.3926L4.56417 33.421L4.36526 32.9806L4.62101 32.668ZM5.4451 31.787L4.66363 31.8155L4.91938 32.3696L5.4451 31.787Z" fill="white"/>
<path d="M43.5234 30.1392L42.813 28.9883L42.8698 28.832L44.9585 29.514L44.8164 29.9545L43.6939 29.5851L44.177 30.3239L44.1628 30.3808L43.3387 30.6933L44.4612 31.0628L44.3191 31.5032L42.2305 30.8212L42.2873 30.6507L43.5234 30.1392Z" fill="white"/>
<path d="M6.40917 33.0654L6.13921 32.5538L6.49442 32.3691L7.24746 33.8042L6.89225 33.9889L6.62229 33.4774L5.04516 34.3015L4.83203 33.9037L6.40917 33.0654Z" fill="white"/>
<path d="M43.2391 31.9714L44.1059 31.8436L44.1627 31.872L43.9496 32.3266L43.0971 32.4119L42.9265 32.7671L43.5801 33.0797L43.3812 33.5059L41.4062 32.554L41.8183 31.7157C41.9178 31.5025 42.074 31.3605 42.2588 31.3036C42.4577 31.2468 42.6424 31.261 42.8271 31.3463C42.955 31.4031 43.0544 31.4883 43.1255 31.602C43.1965 31.7157 43.2249 31.8436 43.2391 31.9714ZM42.5713 32.6108L42.7703 32.1846C42.8129 32.0993 42.8129 32.0141 42.7845 31.9288C42.756 31.8436 42.685 31.7867 42.5998 31.7441C42.5145 31.7015 42.4293 31.7015 42.344 31.7157C42.2588 31.7441 42.2019 31.8009 42.1593 31.8862L41.9604 32.3124L42.5713 32.6108Z" fill="white"/>
<path d="M7.67299 35.1401L7.3462 34.657L7.6872 34.4297L8.59654 35.7653L8.25553 35.9926L7.92874 35.5095L6.45106 36.5041L6.19531 36.1347L7.67299 35.1401Z" fill="white"/>
<path d="M42.6124 34.1745L42.1435 34.956L42.3708 35.2828L42.1151 35.709L42.0583 35.6806L40.7227 33.7199L40.8363 33.5352L43.1949 33.7625L43.2518 33.7909L43.0102 34.203L42.6124 34.1745ZM41.4189 33.9898L41.8878 34.615L42.2003 34.0893L41.4189 33.9898Z" fill="white"/>
<path d="M39.9557 35.0977L40.4672 35.1261L40.3535 35.2824L39.7852 35.3392L39.9557 35.0977Z" fill="white"/>
<path d="M7.74382 37.5557L7.94274 37.7972L7.65857 38.0246L6.97656 37.1721L7.26073 36.9447L7.45965 37.1863L8.59632 36.2769L8.42582 36.0496L8.70999 35.8223L9.36358 36.6321L9.07941 36.8595L8.90891 36.6321L7.74382 37.5557Z" fill="white"/>
<path d="M10.1174 38.3795C10.0606 38.4364 9.98957 38.479 9.91852 38.4932C9.83327 38.5216 9.76223 38.5216 9.67698 38.4932C9.76223 38.7063 9.71961 38.891 9.54911 39.0615C9.40702 39.2036 9.25073 39.2604 9.08023 39.2604C8.90973 39.2604 8.75343 39.1752 8.59714 39.0189L7.88672 38.2943L9.44965 36.7598L10.1032 37.4276C10.2453 37.5696 10.3164 37.7259 10.3306 37.9106C10.3306 38.0811 10.2595 38.2374 10.1174 38.3795ZM9.2081 38.3511L8.8671 37.9959L8.51189 38.3511L8.88131 38.7205C8.93814 38.7774 8.99498 38.8058 9.05181 38.8058C9.10864 38.8058 9.17969 38.7916 9.23652 38.7347C9.30756 38.6637 9.33598 38.5927 9.32177 38.5216C9.29335 38.4648 9.26494 38.4079 9.2081 38.3511ZM9.79065 37.6975L9.49227 37.3849L9.13706 37.7259L9.43544 38.0385C9.49227 38.0954 9.54911 38.1238 9.60594 38.1238C9.66277 38.1238 9.71961 38.1096 9.77644 38.0527C9.83327 37.9959 9.86169 37.9391 9.86169 37.868C9.8759 37.8112 9.84748 37.7544 9.79065 37.6975Z" fill="white"/>
<path d="M39.1623 37.7119C38.9918 37.5556 38.8639 37.3851 38.8071 37.1861C38.7503 36.9872 38.7361 36.8025 38.7787 36.6178C38.8213 36.4331 38.9066 36.2768 39.0344 36.1205C39.1907 35.9358 39.3754 35.8221 39.5886 35.7653C39.8017 35.7085 40.0148 35.7369 40.2279 35.8363L39.9296 36.1773C39.7164 36.1205 39.5175 36.1915 39.3612 36.3905C39.2334 36.5468 39.1765 36.703 39.2049 36.8736C39.2334 37.0441 39.3186 37.2003 39.4749 37.3282C39.6312 37.4703 39.8017 37.5271 39.9722 37.5271C40.1427 37.5271 40.299 37.4419 40.4269 37.2998C40.5405 37.1719 40.5974 37.0583 40.6116 36.9446C40.6258 36.8309 40.5974 36.7031 40.5121 36.561L40.1143 37.0441L39.8159 36.7883L40.4837 36.0068C40.6826 36.1631 40.8247 36.3052 40.91 36.4615C41.0236 36.6604 41.052 36.8593 41.0236 37.0583C40.981 37.2572 40.8957 37.4419 40.7537 37.6124C40.5547 37.8397 40.299 37.9818 40.0148 38.0102C39.7307 38.0386 39.4181 37.9392 39.1623 37.7119Z" fill="white"/>
<path d="M11.654 39.7284C11.5972 39.7852 11.5403 39.8421 11.4551 39.8705C11.3841 39.8989 11.2988 39.9131 11.2278 39.8989C11.3272 40.0978 11.2988 40.2967 11.1425 40.4672C11.0146 40.6093 10.8583 40.6946 10.7021 40.7088C10.5315 40.723 10.361 40.652 10.2048 40.5099L9.4375 39.8421L10.8583 38.1797L11.5546 38.7906C11.7108 38.9185 11.7961 39.0748 11.8103 39.2453C11.8387 39.4158 11.7819 39.5721 11.654 39.7284ZM10.7447 39.771L10.3753 39.4442L10.0485 39.8279L10.4463 40.1689C10.5031 40.2257 10.5742 40.2399 10.631 40.2399C10.6878 40.2399 10.7447 40.2115 10.8015 40.1547C10.8726 40.0836 10.8868 40.0126 10.8726 39.9273C10.8441 39.8847 10.8157 39.8279 10.7447 39.771ZM11.2704 39.0606L10.9436 38.7764L10.6168 39.1459L10.9436 39.43C11.0004 39.4869 11.0715 39.5011 11.1283 39.5011C11.1851 39.5011 11.242 39.4727 11.2988 39.4158C11.3556 39.359 11.3698 39.2879 11.3698 39.2311C11.3698 39.1743 11.3272 39.1174 11.2704 39.0606Z" fill="white"/>
<path d="M38.1236 38.6632L38.081 37.2992L38.2089 37.1855L39.6866 38.8053L39.3455 39.1179L38.5499 38.237L38.6067 39.1179L38.5499 39.1747L37.6832 39.0326L38.4788 39.9136L38.1378 40.2262L36.6602 38.6064L36.788 38.4927L38.1236 38.6632Z" fill="white"/>
<path d="M11.8539 41.2926L12.1097 41.4773L11.8965 41.7757L11.0156 41.1505L11.2288 40.8521L11.4845 41.0369L12.3228 39.8575L12.0955 39.687L12.3086 39.3887L13.1611 39.9854L12.948 40.2838L12.7206 40.1133L11.8539 41.2926Z" fill="white"/>
<path d="M37.1553 40.5394L36.4306 41.0935L36.5159 41.4772L36.1323 41.7755L36.0896 41.7329L35.5781 39.4169L35.7486 39.2891L37.8515 40.3689L37.8941 40.4115L37.5105 40.7099L37.1553 40.5394ZM36.118 39.9284L36.317 40.6815L36.8001 40.3121L36.118 39.9284Z" fill="white"/>
<path d="M13.4867 41.221L13.913 40.9653L14.3677 40.7095L14.7939 40.9653L14.7655 41.0221L13.4867 41.7041L13.0463 42.4572L12.6484 42.2156L13.0889 41.4626L13.0605 40.0275L13.0889 39.9707L13.5152 40.2265V40.7664L13.4867 41.221Z" fill="white"/>
<path d="M34.7563 40.0703L35.4809 41.3349C35.5946 41.5338 35.623 41.7327 35.5519 41.9316C35.4809 42.1305 35.3388 42.2868 35.1399 42.4005C34.941 42.5142 34.7421 42.5568 34.5289 42.5142C34.33 42.4715 34.1737 42.3579 34.0458 42.159L33.918 41.9316L34.3016 41.7185L34.4295 41.9458C34.4863 42.0453 34.5574 42.1021 34.6568 42.1163C34.7421 42.1305 34.8415 42.1163 34.941 42.0595C35.0404 42.0027 35.0973 41.9316 35.1257 41.8464C35.1541 41.7611 35.1399 41.6759 35.0831 41.5764L34.5573 40.6671L34.2163 40.866L34.0174 40.5108L34.7563 40.0703Z" fill="white"/>
<path d="M14.9064 42.7703L15.3184 42.9408C15.29 43.0261 15.3042 43.1113 15.361 43.1966C15.4179 43.2676 15.5031 43.3387 15.6168 43.3813C15.8725 43.4949 16.043 43.4523 16.1141 43.296C16.1283 43.2534 16.1425 43.2108 16.1283 43.1682C16.1283 43.1255 16.1141 43.0971 16.0857 43.0687C16.0715 43.0403 16.043 43.0119 16.0004 42.9834C15.9578 42.955 15.9294 42.9266 15.901 42.9124C15.8725 42.8982 15.8299 42.8698 15.7873 42.8556C15.3184 42.614 15.1479 42.3156 15.29 41.9746C15.3752 41.7615 15.5173 41.6336 15.702 41.591C15.8867 41.5484 16.0999 41.5626 16.313 41.6621C16.4125 41.7047 16.4977 41.7615 16.583 41.8184C16.6682 41.8752 16.725 41.9462 16.7819 42.0173C16.8387 42.0883 16.8671 42.1878 16.8813 42.2872C16.8955 42.3867 16.8671 42.4861 16.8245 42.5998L16.4267 42.4293C16.4409 42.3441 16.4267 42.273 16.384 42.202C16.3272 42.1309 16.2562 42.0741 16.1709 42.0457C16.0857 42.0031 15.9862 41.9889 15.901 42.0173C15.8157 42.0457 15.7589 42.0741 15.7162 42.1594C15.6878 42.2446 15.6878 42.3156 15.7447 42.3725C15.8015 42.4293 15.8867 42.5004 16.0004 42.5572C16.1141 42.614 16.2135 42.6851 16.2846 42.7277C16.3556 42.7845 16.4267 42.8414 16.4977 42.9266C16.5545 42.9977 16.5972 43.0829 16.5972 43.1824C16.5972 43.2818 16.583 43.3813 16.5403 43.4949C16.4977 43.6086 16.4267 43.6939 16.3414 43.7649C16.2562 43.8359 16.1709 43.8644 16.0715 43.8786C15.972 43.8928 15.8725 43.8928 15.7731 43.8786C15.6736 43.8644 15.5742 43.836 15.4605 43.7933C15.2332 43.6939 15.0627 43.566 14.949 43.3813C14.8353 43.1682 14.8211 42.9692 14.9064 42.7703Z" fill="white"/>
<path d="M33.0664 43.0674L33.3506 42.9395L33.5069 43.2805L32.5265 43.7494L32.3702 43.4084L32.6544 43.2805L32.0292 41.9734L31.7735 42.1012L31.6172 41.7744L32.5549 41.334L32.7112 41.6608L32.4555 41.7887L33.0664 43.0674Z" fill="white"/>
<path d="M18.1172 44.4749C17.9183 44.5459 17.7052 44.5459 17.4636 44.4749C17.2363 44.4039 17.0516 44.276 16.9379 44.0913C16.8242 43.9066 16.7958 43.7076 16.8669 43.4803L17.3215 42.0879L17.762 42.23L17.3073 43.6082C17.2789 43.7219 17.2789 43.8071 17.3357 43.8924C17.3926 43.9776 17.4778 44.0344 17.5773 44.0629C17.6909 44.0913 17.7904 44.1055 17.8757 44.0629C17.9751 44.0344 18.0319 43.9634 18.0604 43.8497L18.515 42.4715L18.9555 42.6136L18.5008 44.006C18.4582 44.2618 18.3161 44.4039 18.1172 44.4749Z" fill="white"/>
<path d="M30.3642 43.8359L30.7904 43.6939C30.8188 43.7791 30.8899 43.8359 30.9893 43.8501C31.0888 43.8644 31.1883 43.8501 31.3019 43.8217C31.5719 43.7365 31.6713 43.5944 31.6003 43.4239C31.5861 43.3813 31.5577 43.3386 31.5293 43.3102C31.5008 43.2818 31.4582 43.2676 31.4298 43.2534C31.4014 43.2392 31.3588 43.2392 31.3019 43.2534C31.2451 43.2534 31.2025 43.2676 31.174 43.2676C31.1456 43.2676 31.103 43.2818 31.0462 43.296C30.5347 43.4239 30.2079 43.3244 30.0942 42.9692C30.0232 42.7561 30.0374 42.5714 30.151 42.4009C30.2647 42.2446 30.4352 42.1167 30.6483 42.0457C30.7478 42.0031 30.8473 41.9888 30.9467 41.9746C31.0462 41.9604 31.1456 41.9746 31.2309 41.9888C31.3303 42.003 31.4014 42.0599 31.4866 42.1167C31.5577 42.1878 31.6145 42.273 31.6571 42.3867L31.2451 42.5288C31.2025 42.4577 31.1456 42.4151 31.0604 42.3867C30.9751 42.3725 30.8899 42.3867 30.7904 42.4151C30.691 42.4435 30.6199 42.5003 30.5631 42.5714C30.5062 42.6424 30.492 42.7135 30.5205 42.7987C30.5489 42.884 30.6057 42.9266 30.6768 42.9408C30.762 42.955 30.8615 42.9408 30.9893 42.9124C31.1172 42.884 31.2309 42.8556 31.3161 42.8556C31.4014 42.8556 31.5008 42.8413 31.6003 42.8556C31.6998 42.8698 31.785 42.9124 31.856 42.9692C31.9271 43.0403 31.9839 43.1255 32.0266 43.2392C32.0692 43.3529 32.0834 43.4665 32.055 43.566C32.0408 43.6654 31.9981 43.7649 31.9271 43.8359C31.856 43.907 31.785 43.978 31.6998 44.0349C31.6145 44.0917 31.515 44.1343 31.4156 44.1769C31.1883 44.2622 30.9751 44.2622 30.762 44.2196C30.5773 44.1769 30.4494 44.0491 30.3642 43.8359Z" fill="white"/>
<path d="M18.9579 43.7499C19.0005 43.5225 19.1 43.3378 19.2421 43.1957C19.3841 43.0537 19.5404 42.9542 19.7251 42.8974C19.9098 42.8547 20.0946 42.8405 20.2793 42.8832C20.5066 42.9258 20.7055 43.0394 20.8618 43.1957C21.0181 43.352 21.1034 43.551 21.1034 43.7925L20.6487 43.693C20.5919 43.4799 20.4356 43.3378 20.194 43.2952C19.9951 43.2526 19.8388 43.281 19.6967 43.3947C19.5546 43.4941 19.4694 43.6504 19.4268 43.8493C19.3841 44.0482 19.3983 44.233 19.4978 44.375C19.5831 44.5313 19.7251 44.6166 19.9098 44.6592C20.0661 44.6876 20.2082 44.6876 20.3219 44.645C20.4356 44.6024 20.5208 44.5171 20.6061 44.375L20.0235 44.2472L20.1088 43.8635L21.1176 44.0767C21.0749 44.3182 21.0181 44.5171 20.9186 44.6592C20.7908 44.8439 20.6345 44.9718 20.4498 45.0428C20.2651 45.1139 20.0519 45.1139 19.8388 45.0713C19.5404 45.0144 19.2989 44.8581 19.1284 44.6166C18.9295 44.375 18.8868 44.0767 18.9579 43.7499Z" fill="white"/>
<path d="M29.6968 44.3178L28.8158 44.5451L28.7448 44.9429L28.2759 45.0708L28.2617 45.014L28.7022 42.6838L28.9153 42.627L30.4214 44.4598L30.4356 44.5167L29.9667 44.6446L29.6968 44.3178ZM28.9721 43.3516L28.8585 44.133L29.441 43.9768L28.9721 43.3516Z" fill="white"/>
<path d="M21.6553 43.195L21.8684 43.6638L21.6837 43.6354L21.3711 43.1523L21.6553 43.195Z" fill="white"/>
<path d="M26.9558 43.4659L26.3874 43.5796L26.3164 43.1817L27.8935 42.8691L27.9646 43.267L27.3962 43.3806L27.7373 45.1283L27.2968 45.2135L26.9558 43.4659Z" fill="white"/>
<path d="M23.8996 45.2854C23.729 45.4132 23.5159 45.4701 23.2744 45.4701C23.0328 45.4559 22.8197 45.3848 22.6634 45.2427C22.4929 45.1007 22.4219 44.916 22.4219 44.6744L22.4645 43.2109L22.9334 43.2251L22.8908 44.6744C22.8908 44.7881 22.9192 44.8733 23.0044 44.9444C23.0755 45.0154 23.1749 45.0438 23.2886 45.0438C23.4023 45.0438 23.5017 45.0154 23.5728 44.9586C23.658 44.9017 23.6864 44.8165 23.7006 44.7028L23.7433 43.2536L24.2121 43.2678L24.1695 44.7312C24.1695 44.9728 24.0701 45.1575 23.8996 45.2854Z" fill="white"/>
<path d="M25.9759 44.5748L26.5016 45.271V45.342L26.0043 45.3705L25.5212 44.6743L25.1376 44.6885L25.1802 45.4131L24.7113 45.4415L24.5977 43.2534L25.5354 43.2108C25.777 43.1966 25.9617 43.2676 26.118 43.3955C26.26 43.5376 26.3453 43.7081 26.3453 43.907C26.3595 44.0491 26.3311 44.177 26.26 44.2906C26.189 44.4185 26.1037 44.5037 25.9759 44.5748ZM25.1092 44.3048L25.578 44.2764C25.6775 44.2764 25.7485 44.2338 25.8054 44.1627C25.8622 44.0917 25.8906 44.0065 25.8764 43.9212C25.8764 43.8217 25.8338 43.7507 25.777 43.6939C25.7201 43.637 25.6349 43.6086 25.5354 43.6086L25.0665 43.637L25.1092 44.3048Z" fill="white"/>
<path fill-rule="evenodd" clip-rule="evenodd" d="M2.82121 19.0363H3.40522L3.80847 18.6191L4.22562 19.0363H4.80963V19.6064L5.21287 20.0235L4.80963 20.4268V21.0108H4.22562L3.80847 21.4279L3.40522 21.0108H2.82121V20.4268L2.41797 20.0235L2.82121 19.6064V19.0363Z" fill="white"/>
<path fill-rule="evenodd" clip-rule="evenodd" d="M42.9796 19.0363H43.5498L43.9669 18.6191L44.3701 19.0363H44.9542V19.6064L45.3713 20.0235L44.9542 20.4268V21.0108H44.3701L43.9669 21.4279L43.5498 21.0108H42.9796V20.4268L42.5625 20.0235L42.9796 19.6064V19.0363Z" fill="white"/>
</g>
<path d="M57.848 32V15.08H64.136C66.968 15.08 69.152 15.808 70.688 17.264C72.24 18.72 73.016 20.808 73.016 23.528C73.016 26.232 72.24 28.32 70.688 29.792C69.152 31.264 66.968 32 64.136 32H57.848ZM60.92 29.456H63.944C67.848 29.456 69.8 27.48 69.8 23.528C69.8 19.592 67.848 17.624 63.944 17.624H60.92V29.456ZM79.178 32V17.648H73.37V15.08H88.058V17.648H82.25V32H79.178ZM95.2738 32.24C93.9458 32.24 92.7138 32.072 91.5778 31.736C90.4418 31.384 89.4818 30.912 88.6978 30.32L89.6338 27.896C90.4178 28.456 91.2738 28.888 92.2018 29.192C93.1458 29.496 94.1698 29.648 95.2738 29.648C96.5378 29.648 97.4578 29.44 98.0338 29.024C98.6098 28.592 98.8978 28.04 98.8978 27.368C98.8978 26.808 98.6898 26.368 98.2738 26.048C97.8738 25.728 97.1778 25.464 96.1858 25.256L93.5458 24.704C90.5378 24.064 89.0338 22.52 89.0338 20.072C89.0338 19.016 89.3138 18.096 89.8738 17.312C90.4338 16.528 91.2098 15.92 92.2018 15.488C93.1938 15.056 94.3378 14.84 95.6338 14.84C96.7858 14.84 97.8658 15.016 98.8738 15.368C99.8818 15.704 100.722 16.184 101.394 16.808L100.458 19.112C99.1298 17.992 97.5138 17.432 95.6098 17.432C94.5058 17.432 93.6418 17.664 93.0178 18.128C92.3938 18.592 92.0818 19.2 92.0818 19.952C92.0818 20.528 92.2738 20.992 92.6578 21.344C93.0418 21.68 93.6978 21.944 94.6258 22.136L97.2418 22.688C98.8258 23.024 100.002 23.552 100.77 24.272C101.554 24.992 101.946 25.952 101.946 27.152C101.946 28.16 101.674 29.048 101.13 29.816C100.586 30.584 99.8098 31.184 98.8018 31.616C97.8098 32.032 96.6338 32.24 95.2738 32.24ZM102.523 32.216L102.307 29.696L104.011 29.6C105.435 29.504 106.147 28.72 106.147 27.248V15.08H109.219V27.224C109.219 30.264 107.643 31.896 104.491 32.12L102.523 32.216Z" fill="#222222"/>
<defs>
<clipPath id="clip0_3969_676">
<rect width="48" height="48" fill="white"/>
</clipPath>
</defs>
</svg>
