<svg width="2981" height="2482" viewBox="0 0 2981 2482" fill="none" xmlns="http://www.w3.org/2000/svg">
<g clip-path="url(#clip0_202_233)">
<path d="M1200.09 2480.66C1098.65 2480.66 1016.13 2398.39 1016.13 2296.7V1841.14L781.065 2480.66H748.872C671.966 2480.66 602.98 2432.63 576.408 2360.57L385.805 1843.7V2480.66H384.527C283.093 2480.66 200.566 2398.39 200.566 2296.7V1563.92H327.039C386.316 1563.92 439.715 1599.95 461.944 1654.88L703.648 2253.52L930.788 1680.17C958.638 1610.17 1026.35 1563.92 1101.72 1563.92H1200.09V2480.66Z" fill="#000C36"/>
<path d="M1583.08 1941.55H1911.4C1911.4 2019.99 1847.78 2083.36 1769.6 2083.36H1583.08V2332.72H1950.75V2339.37C1950.75 2417.81 1887.13 2481.17 1808.94 2481.17H1539.65C1461.21 2481.17 1397.84 2417.55 1397.84 2339.37V1950.75V1696.02C1397.84 1617.58 1461.46 1554.21 1539.65 1554.21H1950.75V1559.58C1950.75 1638.02 1887.13 1701.38 1808.94 1701.38H1583.08V1941.55Z" fill="#000C36"/>
<path d="M2851.64 2260.16C2813.06 2330.17 2757.36 2384.85 2684.29 2423.68C2611.22 2462.52 2524.35 2482.19 2423.68 2482.19H2286.73C2180.19 2482.19 2093.83 2395.83 2093.83 2289.29V1747.63C2093.83 1641.08 2180.19 1554.72 2286.73 1554.72H2423.68C2524.35 1554.72 2611.22 1573.89 2684.29 1611.96C2757.36 1650.03 2813.32 1703.94 2851.64 1773.43C2890.22 1842.93 2909.39 1924.18 2909.39 2017.18C2909.39 2109.16 2890.22 2190.15 2851.64 2260.16ZM2639.58 2237.68C2694.26 2185.04 2721.59 2111.72 2721.59 2016.92C2721.59 1921.62 2694.26 1847.53 2639.58 1794.89C2584.9 1742.26 2507.48 1716.2 2407.84 1716.2H2279.07V2187.6C2279.07 2258.63 2336.81 2316.37 2407.84 2316.37C2507.48 2316.63 2584.9 2290.31 2639.58 2237.68Z" fill="#000C36"/>
<path fill-rule="evenodd" clip-rule="evenodd" d="M1554.47 81.7603V80.4828C1554.47 36.0256 1525.85 0 1490.34 0C1454.82 0 1426.21 36.0256 1426.21 80.4828V81.7603C1001.05 299.192 812.493 758.071 877.902 1339.59C945.354 1301.78 1023.28 1280.31 1106.32 1280.31C1216.45 1280.31 1317.62 1318.35 1397.59 1381.92V2339.62C1397.59 2418.06 1461.21 2481.68 1539.65 2481.68H1808.18C1886.62 2481.68 1950.24 2418.06 1950.24 2339.62V2336.3C1950.24 2334.26 1948.45 2332.47 1946.41 2332.47H1623.45C1601.22 2332.72 1583.08 2314.84 1583.08 2292.61V1381.92C1663.06 1318.35 1764.23 1280.31 1874.36 1280.31C1957.39 1280.31 2035.07 1301.78 2102.77 1339.59C2168.18 758.071 1979.88 299.192 1554.47 81.7603ZM1772.67 80.2273C1788.51 83.2934 1804.09 86.6149 1819.68 90.1919C2447.7 231.484 2926.51 767.525 2980.93 1424.16C2927.43 1368.43 2860.12 1326.02 2784.67 1301.89C2741.78 1288.9 2689.84 1280.06 2642.9 1280.06C2563.95 1280.06 2489.35 1299.48 2423.94 1334.23C2477.59 733.288 2254.03 269.809 1772.67 80.2273ZM1208.52 80.4828C557.248 204.656 55.9547 751.173 0 1424.16C85.3373 1335.5 205.167 1280.31 338.028 1280.31C417.233 1280.31 491.584 1299.99 556.992 1334.48C503.592 733.543 727.156 270.064 1208.52 80.4828ZM1659.16 518.664C1667.55 509.399 1683.96 498.578 1695.1 494.957C1711.5 489.631 1743.31 496.61 1756.91 508.516C1759.04 510.379 1765.74 512.389 1771.8 512.981C1777.86 513.572 1786.5 515.592 1791 517.468C1798.04 520.402 1798.85 521.515 1796.76 525.406C1793.34 531.775 1773.06 549.2 1769.07 549.2C1762.85 549.2 1758.24 565.86 1757.06 592.631L1755.92 618.45L1771.52 603.899C1788.93 587.65 1799.67 583.628 1809.13 589.813C1816.29 594.491 1828.63 625.765 1832.14 648.136C1835.38 668.776 1833.68 706.529 1828.23 734.724C1820.57 774.44 1792.72 841.177 1760.62 896.763C1735.44 940.373 1691.32 1005.48 1688.23 1003.57C1687.26 1002.97 1689.99 992.505 1694.3 980.315C1719.07 910.292 1736.21 819.174 1731.79 781.13L1730.17 767.174L1722.77 774.071C1697.77 797.384 1649.95 819.816 1571.77 844.904C1530.45 858.16 1523.7 861.742 1452.88 908.003C1390.22 948.935 1186.54 1090.35 1172.09 1102.96C1168.87 1105.76 1167.27 1105.96 1165.13 1103.82C1162.98 1101.68 1163.13 1100.33 1165.77 1097.96C1167.66 1096.27 1177.68 1087.56 1188.04 1078.61C1295.87 985.411 1384.61 900.633 1384.61 890.81C1384.61 884.361 1373.58 882.354 1353.09 885.068C1331.47 887.933 1294.36 897.376 1159.9 934.23C1108.17 948.407 1065.33 959.499 1064.71 958.876C1064.09 958.254 1064.57 956.796 1065.78 955.638C1068.66 952.878 1253.82 879.188 1318.69 854.983C1346.53 844.596 1376.13 834.345 1384.47 832.199C1413.4 824.757 1436.57 809.666 1472.61 774.78C1500.55 747.732 1516.45 728.165 1516.45 720.833C1516.45 714.936 1500.59 705.362 1480.46 699.098C1428.92 683.066 1342.41 690.353 1244.53 718.973C1151.66 746.128 1131.67 752.334 1099.5 764.018C1080.47 770.929 1062.59 777.817 1059.76 779.327C1053.96 782.424 1049.55 779.956 1055.02 776.678C1079.56 761.984 1402.29 579.269 1415.43 572.635C1438.66 560.909 1457.3 556.245 1480.96 556.245C1506.03 556.245 1523.99 562.344 1547.41 578.809C1557.41 585.837 1569.48 593.209 1574.23 595.191C1584.86 599.623 1603.08 600.257 1612.14 596.511C1621.05 592.826 1632.84 575.197 1639.06 556.245C1645.57 536.404 1649.13 529.734 1659.16 518.664Z" fill="#000C36"/>
</g>
<defs>
<clipPath id="clip0_202_233">
<rect width="2980.93" height="2481.94" fill="white"/>
</clipPath>
</defs>
</svg>
