<svg width="100" height="100" viewBox="0 0 100 100" fill="none" xmlns="http://www.w3.org/2000/svg">
<g clip-path="url(#clip0_4_329)">
<path fill-rule="evenodd" clip-rule="evenodd" d="M85.3418 14.6582C76.3036 5.59096 63.8181 0 50 0C36.1819 0 23.6964 5.59096 14.6582 14.6582C5.59096 23.6964 0 36.1819 0 50C0 63.8181 5.59096 76.3036 14.6582 85.3418C23.6964 94.3801 36.2109 100 50 100C63.8181 100 76.3036 94.409 85.3418 85.3418C94.3801 76.3036 100 63.7891 100 50C100 36.1819 94.409 23.6964 85.3418 14.6582Z" fill="#404C75"/>
<path fill-rule="evenodd" clip-rule="evenodd" d="M50 1.96988C63.2677 1.96988 75.2607 7.35806 83.9803 16.0487C92.6709 24.7393 98.0591 36.7613 98.0591 50.029C98.0591 63.2966 92.6709 75.2897 83.9803 84.0093C75.2897 92.6999 63.2677 98.0881 50 98.0881C36.7323 98.0881 24.7393 92.6999 16.0197 84.0093C7.32908 75.3187 1.9409 63.2966 1.9409 50.029C1.9409 36.7613 7.32908 24.7683 16.0197 16.0487C24.7393 7.32909 36.7323 1.96988 50 1.96988Z" fill="#C9C069"/>
<path fill-rule="evenodd" clip-rule="evenodd" d="M76.3036 23.6964C69.5828 16.9757 60.2839 12.8042 50 12.8042C39.7161 12.8042 30.4172 16.9757 23.6964 23.6964C16.9757 30.4171 12.8042 39.7161 12.8042 50C12.8042 60.2839 16.9757 69.5828 23.6964 76.3036C30.4172 83.0243 39.7161 87.1958 50 87.1958C60.2839 87.1958 69.5828 83.0243 76.3036 76.3036C83.0243 69.5828 87.1958 60.2839 87.1958 50C87.1958 39.7161 83.0533 30.4171 76.3036 23.6964Z" fill="#404C75"/>
<path fill-rule="evenodd" clip-rule="evenodd" d="M76.3036 23.6964C74.1889 21.5817 71.8424 19.7277 69.2642 18.1634L13.1228 54.8667C14.2236 63.1808 18.0475 70.6547 23.6964 76.3036C30.4171 83.0243 39.7161 87.1958 50 87.1958C50.8111 87.1958 51.5933 87.1669 52.3754 87.1089L81.2862 29.8378C79.8378 27.6362 78.1866 25.5504 76.3036 23.6964Z" fill="#5D72A7"/>
<path fill-rule="evenodd" clip-rule="evenodd" d="M22.1611 43.6559C23.8413 44.438 24.5075 47.0742 24.2468 50.3476C23.8123 55.7937 24.971 62.8331 31.8076 66.3094C30.7068 62.4276 26.1877 61.3268 28.9687 55.7358C29.2874 57.1842 29.635 57.1553 29.9826 57.7926C36.8772 70.336 48.2039 64.5133 49.5944 83.8355C44.7277 76.1587 31.6338 73.6964 25.6373 67.3233C21.0892 62.5145 19.0904 56.1124 21.321 46.6976C21.5527 45.7126 21.9003 45.2202 22.1611 43.6559Z" fill="white"/>
<path fill-rule="evenodd" clip-rule="evenodd" d="M52.0857 42.0916C33.2271 35.2549 31.9235 54.0267 46.6976 67.7868C36.3268 64.3395 23.6095 49.8262 32.2132 38.4994C39.5713 30.1854 47.3638 35.197 52.0857 42.0916Z" fill="white"/>
<path fill-rule="evenodd" clip-rule="evenodd" d="M51.9409 46.4079C66.3963 43.1344 68.2793 57.5319 53.6211 68.0186C64.9768 64.9479 73.9861 53.679 67.0046 44.496C62.7173 39.7451 55.7358 40.8459 51.9409 46.4079Z" fill="white"/>
<path fill-rule="evenodd" clip-rule="evenodd" d="M45.1333 21.4658C48.3198 21.4658 50.927 24.044 50.927 27.2596C50.927 30.4461 48.3488 33.0533 45.1333 33.0533C41.9467 33.0533 39.3395 30.4751 39.3395 27.2596C39.3685 24.073 41.9467 21.4658 45.1333 21.4658Z" fill="white"/>
<path fill-rule="evenodd" clip-rule="evenodd" d="M59.1831 31.1124C61.6454 31.1124 63.6153 33.1112 63.6153 35.5446C63.6153 38.0069 61.6165 39.9768 59.1831 39.9768C56.7207 39.9768 54.7509 37.978 54.7509 35.5446C54.7509 33.0823 56.7207 31.1124 59.1831 31.1124Z" fill="white"/>
<path fill-rule="evenodd" clip-rule="evenodd" d="M44.9594 49.9131C44.0904 57.1263 46.8134 63.9629 50.4056 68.5689C50.7532 60.6315 53.1576 54.0846 57.0104 50.3186C54.3453 51.4484 51.1877 53.7949 49.3917 58.6906C47.5377 56.9525 46.6396 55.6199 44.9594 49.9131Z" fill="white"/>
<path fill-rule="evenodd" clip-rule="evenodd" d="M49.8552 49.2468C50.898 49.5075 51.5353 50.6952 51.2167 51.883C50.927 53.0996 49.8262 53.8528 48.7833 53.5921C47.7404 53.3314 47.1031 52.1437 47.4218 50.956C47.7115 49.7682 48.8123 48.9861 49.8552 49.2468Z" fill="white"/>
<path fill-rule="evenodd" clip-rule="evenodd" d="M78.2445 43.6559C76.5643 44.438 75.898 47.0742 76.1587 50.3476C76.5933 55.7937 75.4345 62.8331 68.5979 66.3094C69.6987 62.4276 74.2178 61.3268 71.4368 55.7358C71.1182 57.1842 70.7706 57.1553 70.4229 57.7926C63.5284 70.336 52.2016 64.5133 50.8111 83.8355C55.6779 76.1587 68.7717 73.6964 74.7682 67.3233C79.3163 62.5145 81.3152 56.1124 79.0846 46.6976C78.8528 45.7126 78.5052 45.2202 78.2445 43.6559Z" fill="white"/>
<path d="M88.0359 33.343L90.2375 32.3291L90.4403 32.7926C90.7879 32.6477 90.9907 32.5319 91.3094 32.387C91.0197 31.7497 90.73 31.1124 90.4113 30.4461C90.0637 30.591 89.8609 30.7068 89.5423 30.8517L89.7451 31.3152L87.5434 32.3291L87.3117 31.8366C86.9641 31.9815 86.7613 32.0973 86.4137 32.2422C86.7323 32.9085 87.022 33.5747 87.3407 34.241C87.6883 34.0962 87.8911 33.9803 88.2387 33.8355L88.0359 33.343ZM86.2109 28.9108C86.0371 28.5921 85.8633 28.3024 85.6894 27.9548C84.0093 28.8528 85.7474 31.9525 87.3696 31.0545C88.3256 30.533 88.0069 29.7219 87.6883 28.9397C87.5434 28.5632 87.4276 28.2445 87.7462 28.1286C88.2097 27.9258 88.8181 28.9108 88.3256 29.2005C88.4994 29.5191 88.6443 29.7798 88.847 30.1275C90.4983 29.2294 88.876 26.2746 87.2538 27.2016C86.4426 27.6651 86.4426 28.3604 86.8482 29.2294C87.051 29.635 87.1668 29.9537 86.9061 30.0985C86.3847 30.3592 85.7184 29.1715 86.2109 28.9108ZM84.5307 25.9849L83.9513 25.1738L85.168 24.9131L84.5307 25.9849ZM83.6616 27.3754L84.2989 28.2735L84.4438 28.1866L86.7613 24.102L86.4716 23.7254L81.8656 24.5944L81.7207 24.6813L82.358 25.5794L82.9664 25.4635L83.9513 26.854L83.6616 27.3754ZM79.6639 22.3349L80.9096 21.2341C80.9965 21.3499 81.0834 21.4368 81.1993 21.5527L80.562 23.3778L81.3731 24.3048L81.5179 24.1889L82.1842 22.0452C83.1692 22.3349 83.7775 21.7845 84.4438 21.2051C84.1831 20.9154 83.9513 20.6257 83.6906 20.336C83.0823 20.8575 82.4739 21.4658 81.7497 20.6257L81.6918 20.5678L82.9374 19.4959C82.6767 19.2063 82.445 18.9166 82.1842 18.6269L78.8818 21.4658C79.1715 21.7555 79.4032 22.0452 79.6639 22.3349ZM78.5052 19.7856L80.1274 18.0185L80.504 18.3662C80.7648 18.0765 80.9096 17.9316 81.1703 17.6419C80.6489 17.1495 80.1274 16.686 79.606 16.1935C79.3453 16.4542 79.2005 16.628 78.9397 16.9177L79.3163 17.2654L77.6941 19.0324L77.2885 18.6559C77.0278 18.9166 76.883 19.0904 76.6222 19.3801C77.1726 19.8725 77.6941 20.365 78.2445 20.8864C78.5052 20.5968 78.65 20.4229 78.9108 20.1622L78.5052 19.7856ZM77.5782 14.6002C77.2885 14.3685 76.9699 14.1367 76.6802 13.934L74.044 17.4102C74.7393 17.9316 75.4925 18.511 76.1877 19.0324C76.4195 18.7428 76.5643 18.54 76.7961 18.2213L75.5504 17.2654C76.6802 15.7879 76.2167 16.3963 77.5782 14.6002ZM73.7254 13.0649C74.102 13.3256 73.6964 13.905 73.3488 13.6732L72.7694 13.2966L73.175 12.6883L73.7254 13.0649ZM73.0011 14.5423C73.3777 14.803 72.9722 15.4114 72.5956 15.1506L71.8424 14.6582L72.248 14.0498L73.0011 14.5423ZM74.7393 14.1657C75.1448 13.5284 74.971 12.7173 74.3337 12.3117L72.7694 11.2978L70.394 14.9189L72.1031 16.0487C72.8563 16.5411 73.5805 16.2804 73.9861 15.6431C74.1889 15.3245 74.2468 14.9479 74.044 14.6002C74.3337 14.5713 74.5944 14.3685 74.7393 14.1657ZM68.1923 12.7173C67.9027 12.5724 67.6709 12.2538 67.8447 11.9351L69.1193 9.3569C68.8007 9.21205 68.482 9.03824 68.1634 8.8934L66.8598 11.5006C66.4253 12.3696 66.9467 13.2387 67.7288 13.6153C68.54 14.0209 69.5249 13.905 69.9594 13.0359L71.263 10.4287C70.9444 10.2839 70.6257 10.1101 70.3071 9.93627L69.0324 12.5145C68.8586 12.8331 68.482 12.8331 68.1923 12.7173ZM64.5713 9.84936L63.8181 9.58865C63.9339 9.24102 64.1078 8.74855 64.2236 8.40093C64.4554 8.48783 64.7451 8.57474 64.9768 8.66165C65.5852 8.8934 65.1506 10.0521 64.5713 9.84936ZM63.1228 11.6165L63.4704 10.5736L64.2236 10.8343C66.1935 11.5006 67.2364 8.45887 65.2665 7.76362C64.6582 7.56084 64.0498 7.35806 63.4415 7.15527C62.978 8.54577 62.4855 9.9073 62.022 11.2688C62.3986 11.3557 62.7752 11.4716 63.1228 11.6165ZM59.0962 9.09618C58.7196 9.00927 58.4299 8.92237 58.0533 8.80649C57.5319 10.6605 60.9502 11.5295 61.4426 9.76246C61.7323 8.71958 60.9502 8.37196 60.139 8.0533C59.7624 7.90846 59.4728 7.76362 59.5886 7.44496C59.7624 6.95249 60.8922 7.21321 60.7474 7.76362C61.124 7.85052 61.3847 7.93743 61.7613 8.0533C62.2827 6.25724 59.0093 5.35921 58.5458 7.18424C58.314 8.11124 58.8354 8.57474 59.7335 8.8934C60.139 9.03824 60.4867 9.18308 60.3998 9.47277C60.2839 9.99421 58.9513 9.64658 59.0962 9.09618ZM57.5898 5.76478C56.5759 5.59096 55.9096 5.47509 54.8957 5.30128C54.664 6.72074 54.4032 8.16918 54.1715 9.58865C55.1564 9.76246 55.9096 9.87833 56.9235 10.0521C56.9814 9.73349 57.0394 9.38586 57.0973 9.06721C56.46 8.95133 56.0834 8.8934 55.4461 8.77752C55.504 8.5168 55.533 8.28505 55.562 8.02434L57.0104 8.28505C57.0684 7.9664 57.1263 7.64774 57.1842 7.30012L55.7358 7.0394L55.8517 6.43106C56.489 6.54693 56.8076 6.60487 57.445 6.69177C57.4739 6.40209 57.5319 6.08343 57.5898 5.76478ZM51.6802 7.21321L50.898 7.18424C50.927 6.83662 50.927 6.46002 50.956 6.08343C51.2167 6.08343 51.4774 6.1124 51.7381 6.1124C52.3465 6.17034 52.2885 7.24218 51.6802 7.21321ZM52.5492 7.99537C53.679 7.30012 53.4762 5.21437 51.7671 5.12746C51.1298 5.0985 50.4925 5.06953 49.8551 5.04056C49.7972 6.48899 49.7103 7.93743 49.6524 9.38587C50 9.41483 50.4056 9.41483 50.7532 9.4438L50.8111 8.16918L51.3905 8.19815L52.0857 9.50174L53.3314 9.55968V9.38587L52.5492 7.99537ZM46.292 9.58865L46.6976 9.53071L46.0892 5.21437C45.7126 5.27231 45.336 5.33025 44.9594 5.35921L45.2491 7.47393L42.7578 5.6489L42.3523 5.70684L42.9606 10.0521C43.3372 9.99421 43.7138 9.93627 44.0904 9.9073L43.8007 7.79259L46.292 9.58865ZM38.2387 8.8934C37.8621 7.38702 39.9768 6.83662 40.3534 8.34299C40.73 9.87833 38.6153 10.4287 38.2387 8.8934ZM41.4542 8.08227C40.701 5.15643 36.3847 6.28621 37.1379 9.18308C37.8621 12.1089 42.2074 11.0081 41.4542 8.08227ZM33.8934 9.18308L35.1101 12.3117C35.4577 12.1669 35.8053 12.051 36.124 11.9061L34.9073 8.77752L35.8922 8.40093C35.7764 8.08227 35.6605 7.79259 35.5156 7.47393L32.5029 8.66165C32.6188 8.9803 32.7346 9.26999 32.8795 9.58865L33.8934 9.18308ZM30.8227 12.7462C30.4751 12.92 30.1854 13.0359 29.8378 13.2097C30.6489 14.9479 33.8355 13.3835 33.0243 11.7323C32.5608 10.7474 31.7497 11.0081 30.9096 11.2978C30.533 11.4137 30.2144 11.5006 30.0985 11.1819C29.9247 10.6895 30.9386 10.1391 31.1993 10.6605C31.5469 10.4867 31.8076 10.3708 32.1553 10.197C31.3731 8.48783 28.3024 9.93627 29.1425 11.6165C29.5481 12.4565 30.2723 12.4855 31.1414 12.1379C31.5469 11.9641 31.8945 11.8772 32.0104 12.1379C32.3001 12.6593 31.0545 13.2387 30.8227 12.7462ZM28.9397 14.1947L27.6651 12.1669L28.0996 11.8772C27.8969 11.5585 27.781 11.3557 27.5782 11.0661C26.9699 11.4426 26.3905 11.8192 25.7822 12.1958C25.9849 12.5145 26.1008 12.6883 26.3036 13.007L26.7381 12.7462L28.0127 14.774L27.5492 15.0637C27.752 15.3824 27.8679 15.5562 28.0707 15.9038C28.708 15.4983 29.3163 15.1217 29.9536 14.7161C29.7509 14.3975 29.635 14.1947 29.4322 13.876L28.9397 14.1947ZM25.5504 17.6419L24.5944 16.2804C24.7103 16.1935 24.8262 16.1066 24.9421 16.0197L26.7091 16.8308L27.7231 16.1066L27.6361 15.9618L25.5504 15.0927C25.927 14.1367 25.4345 13.4705 24.9131 12.7462C24.5944 12.978 24.2758 13.1808 23.9861 13.4125C24.4496 14.0788 25 14.7161 24.073 15.3824L24.0151 15.4403L23.0591 14.1078C22.7404 14.3395 22.4507 14.5423 22.1321 14.774L24.6234 18.3082C24.9421 18.0765 25.2317 17.8737 25.5504 17.6419ZM20.6837 15.9038C19.9594 16.5991 19.438 17.0915 18.7138 17.7868C19.7277 18.8297 20.7416 19.8725 21.7555 20.9154C22.4797 20.2202 23.0301 19.6987 23.7543 18.9745C23.5226 18.7428 23.2908 18.482 23.0591 18.2503C22.5956 18.7138 22.3059 18.9745 21.8714 19.409C21.6976 19.2352 21.5237 19.0324 21.3499 18.8586L22.4218 17.8158C22.19 17.584 21.9583 17.3523 21.7265 17.0915L20.6547 18.1344L20.2202 17.6999C20.6837 17.2654 20.9154 17.0336 21.3789 16.5701C21.1472 16.3963 20.9154 16.1356 20.6837 15.9038ZM17.3523 20.6257C17.6419 20.2781 18.1923 20.7416 17.9027 21.0892L17.4392 21.6107L16.8888 21.1472L17.3523 20.6257ZM18.7138 21.5527C19.0035 21.2051 19.5828 21.6976 19.2932 22.0162L18.7138 22.6825L18.1634 22.19L18.7138 21.5527ZM18.5689 19.7567C17.9896 19.2642 17.1495 19.3511 16.657 19.9015L15.4403 21.321L18.7428 24.1599L20.0753 22.6246C20.6547 21.9583 20.4809 21.2051 19.9015 20.7126C19.6118 20.4519 19.2642 20.365 18.8876 20.5388C18.9166 20.2491 18.7428 19.9305 18.5689 19.7567ZM14.7161 22.248L12.7173 24.8841C13.007 25.1159 13.2097 25.2607 13.4994 25.4925L14.4844 24.2178L15.9618 27.5782L16.1066 27.6941L18.2213 24.9131C17.9316 24.6813 17.7289 24.5365 17.4392 24.3048L16.3384 25.7532L14.8899 22.3928L14.7161 22.248ZM12.8621 26.3036L12.7752 26.2457L11.6454 26.0718L11.3847 27.0278L11.4716 27.0857L12.4276 26.9409L12.8621 26.3036ZM11.153 32.1553C9.73349 31.46 10.7184 29.4902 12.1379 30.1854C13.5574 30.8806 12.5724 32.8505 11.153 32.1553ZM12.6304 29.1715C9.93627 27.8389 7.93743 31.8366 10.6315 33.1692C13.3546 34.5017 15.3534 30.5041 12.6304 29.1715Z" fill="white"/>
<path d="M9.35823 48.6095L9.38783 50.2967C9.38783 50.9776 9.18062 51.54 8.73661 51.9248C8.2926 52.3392 7.75978 52.5464 7.13816 52.5464C6.51654 52.576 5.98372 52.3688 5.51011 51.984C5.0365 51.5992 4.82929 51.0368 4.79969 50.3559L4.77009 48.6687L9.35823 48.6095ZM5.71732 49.6159V50.3263C5.71732 50.7112 5.86532 51.0368 6.13173 51.2736C6.39814 51.5104 6.75335 51.5992 7.13816 51.5992C7.52297 51.5992 7.84858 51.4808 8.11499 51.244C8.3814 51.0072 8.4998 50.7112 8.4998 50.2967V49.5863L5.71732 49.6159Z" fill="white"/>
<path d="M94.4017 49.8527L94.4313 49.2015L95.2009 49.2311L95.1121 51.5104L94.3425 51.4808L94.3721 50.8296L91.3528 50.7112L91.3232 51.3032L90.5832 51.2736L90.672 49.1127L91.4416 49.1423L91.412 49.7343L94.4017 49.8527Z" fill="white"/>
<path d="M6.04298 56.1873L5.86538 54.2929L5.06615 54.0265L4.97735 53.02H5.09576L9.7431 54.6777L9.7727 55.1217L5.53977 57.6378H5.42137L5.33256 56.6313L6.04298 56.1873ZM8.26305 55.0033L6.6942 54.5297L6.81261 55.7729L8.26305 55.0033Z" fill="white"/>
<path d="M93.4545 55.6841L93.5137 54.7665C93.721 54.7665 93.869 54.6777 93.9874 54.5297C94.1058 54.3521 94.165 54.1449 94.1946 53.9081C94.2242 53.316 94.0762 53.02 93.6914 52.9904C93.6026 52.9904 93.5137 52.9904 93.4249 53.0496C93.3361 53.0792 93.2769 53.1384 93.2473 53.1976C93.2177 53.2568 93.1585 53.316 93.1289 53.4344C93.0993 53.5233 93.0697 53.6121 93.0697 53.7009C93.0697 53.7601 93.0401 53.8489 93.0105 53.9673C92.8329 55.0625 92.3593 55.5953 91.5897 55.5361C91.1161 55.5065 90.7609 55.2993 90.5537 54.9737C90.3465 54.6185 90.2576 54.2041 90.2873 53.7009C90.3169 53.464 90.3465 53.2568 90.4057 53.0792C90.4649 52.872 90.5537 52.6944 90.6721 52.5464C90.7905 52.3984 90.9385 52.2504 91.1457 52.1616C91.3233 52.0728 91.5601 52.0432 91.7969 52.0728L91.7377 52.9904C91.5601 52.9904 91.4121 53.0792 91.3233 53.2272C91.2345 53.3752 91.1753 53.5529 91.1457 53.7601C91.1161 53.9673 91.1753 54.1449 91.2641 54.3225C91.3529 54.4705 91.4713 54.5593 91.6489 54.5889C91.8265 54.5889 91.9745 54.5297 92.0633 54.3817C92.1521 54.2337 92.2113 54.0265 92.2705 53.7601C92.3297 53.4936 92.3593 53.2568 92.4185 53.0792C92.4777 52.9016 92.5665 52.724 92.6553 52.5464C92.7737 52.3688 92.9217 52.2504 93.0993 52.1616C93.2769 52.0728 93.5137 52.0432 93.7505 52.0728C94.017 52.1024 94.2242 52.1616 94.4018 52.28C94.5794 52.3984 94.7274 52.5464 94.8162 52.724C94.905 52.9016 94.9642 53.1088 94.9938 53.316C95.0234 53.5232 95.053 53.7601 95.0234 53.9969C94.9938 54.5001 94.8162 54.9145 94.5498 55.2697C94.2834 55.5657 93.9282 55.7137 93.4545 55.6841Z" fill="white"/>
<path d="M7.55263 59.177L9.09188 59.3842L10.6607 59.6802L10.8679 60.6867L10.7199 60.7163L5.95418 59.7098L5.86538 59.325L9.8319 56.5129L9.9799 56.4833L10.1871 57.4898L8.88467 58.3778L7.55263 59.177Z" fill="white"/>
<path d="M93.7506 57.3418L93.3658 59.2066L94.017 59.7098L93.8098 60.7163L93.6914 60.6867L89.7544 57.697L89.8432 57.2529L94.6386 56.1577L94.757 56.1873L94.5498 57.1641L93.7506 57.3418ZM91.2641 57.7858L92.5961 58.7034L92.8625 57.4602L91.2641 57.7858Z" fill="white"/>
<path d="M11.3713 62.0483L7.81915 63.0843L8.35197 64.9196L7.52314 65.1564L6.72392 62.4035L11.1049 61.1307L11.3713 62.0483Z" fill="white"/>
<path d="M9.62463 68.0573L8.82541 66.3404H7.99659L7.58217 65.4228L7.70058 65.3636L12.6439 65.3932L12.8215 65.8076L9.62463 69.5669L9.50623 69.6261L9.09182 68.7085L9.62463 68.0573ZM11.3415 66.222L9.71344 66.2812L10.2463 67.4356L11.3415 66.222Z" fill="white"/>
<path d="M90.6721 62.7883L89.192 60.3906L89.3104 60.065L93.6618 61.4859L93.3657 62.4035L91.0273 61.6339L92.0337 63.1731L92.0041 63.2915L90.2873 63.9428L92.6257 64.7124L92.3297 65.63L87.9784 64.2092L88.0968 63.8539L90.6721 62.7883Z" fill="white"/>
<path d="M13.3545 68.8861L12.792 67.8205L13.5321 67.4357L15.1009 70.4254L14.3609 70.8102L13.7985 69.7445L10.5128 71.4614L10.0688 70.6326L13.3545 68.8861Z" fill="white"/>
<path d="M90.0798 66.6068L91.8855 66.3404L92.0039 66.3996L91.5599 67.3469L89.7838 67.5245L89.4286 68.2645L90.7902 68.9157L90.3758 69.8037L86.2613 67.8205L87.1197 66.074C87.3269 65.63 87.6525 65.334 88.0374 65.2156C88.4518 65.0972 88.8366 65.1268 89.2214 65.3044C89.4878 65.4228 89.695 65.6004 89.843 65.8372C89.991 66.074 90.0502 66.3404 90.0798 66.6068ZM88.6886 67.9389L89.103 67.0509C89.1918 66.8733 89.1918 66.6956 89.1326 66.518C89.0734 66.3404 88.9254 66.222 88.7478 66.1332C88.5702 66.0444 88.3926 66.0444 88.215 66.074C88.0374 66.1332 87.9189 66.2516 87.8301 66.4292L87.4157 67.3173L88.6886 67.9389Z" fill="white"/>
<path d="M15.9888 73.2078L15.308 72.2014L16.0184 71.7278L17.9129 74.5103L17.2025 74.9839L16.5216 73.9774L13.4431 76.0495L12.9103 75.2799L15.9888 73.2078Z" fill="white"/>
<path d="M88.7774 71.195L87.8006 72.823L88.2742 73.5039L87.7414 74.3919L87.623 74.3327L84.8405 70.2478L85.0773 69.8629L89.9911 70.3366L90.1095 70.3958L89.6063 71.2542L88.7774 71.195ZM86.291 70.8102L87.2678 72.1126L87.919 71.0174L86.291 70.8102Z" fill="white"/>
<path d="M83.2422 73.119L84.3078 73.1782L84.071 73.5039L82.887 73.6223L83.2422 73.119Z" fill="white"/>
<path d="M16.1368 78.24L16.5512 78.7432L15.9592 79.2168L14.5384 77.4408L15.1304 76.9672L15.5448 77.4704L17.9129 75.5759L17.5577 75.1023L18.1497 74.6287L19.5113 76.3159L18.9193 76.7896L18.5641 76.3159L16.1368 78.24Z" fill="white"/>
<path d="M21.0803 79.9568C20.9619 80.0752 20.8139 80.164 20.6659 80.1936C20.4883 80.2529 20.3403 80.2529 20.1627 80.1936C20.3403 80.6377 20.2515 81.0225 19.8963 81.3777C19.6003 81.6737 19.2746 81.7921 18.9194 81.7921C18.5642 81.7921 18.2386 81.6145 17.913 81.2889L16.433 79.7792L19.6891 76.5823L21.0507 77.9736C21.3467 78.2696 21.4947 78.5952 21.5243 78.98C21.5243 79.3352 21.3763 79.6608 21.0803 79.9568ZM19.1858 79.8976L18.4754 79.1576L17.7354 79.8976L18.505 80.6673C18.6234 80.7857 18.7418 80.8449 18.8602 80.8449C18.9786 80.8449 19.1266 80.8153 19.245 80.6969C19.393 80.5489 19.4522 80.4009 19.4226 80.2528C19.3634 80.1344 19.3042 80.016 19.1858 79.8976ZM20.3995 78.536L19.7779 77.8848L19.0378 78.5952L19.6595 79.2464C19.7779 79.3648 19.8963 79.424 20.0147 79.424C20.1331 79.424 20.2515 79.3944 20.3699 79.276C20.4883 79.1576 20.5475 79.0392 20.5475 78.8912C20.5771 78.7728 20.5179 78.6544 20.3995 78.536Z" fill="white"/>
<path d="M81.5845 78.5656C81.2293 78.24 80.9629 77.8848 80.8445 77.4704C80.7261 77.056 80.6965 76.6712 80.7853 76.2864C80.8741 75.9015 81.0517 75.5759 81.3181 75.2503C81.6437 74.8655 82.0285 74.6287 82.4726 74.5103C82.9166 74.3919 83.3606 74.4511 83.8046 74.6583L83.183 75.3687C82.739 75.2503 82.3246 75.3983 81.9989 75.8127C81.7325 76.1383 81.6141 76.464 81.6733 76.8192C81.7325 77.1744 81.9101 77.5 82.2358 77.7664C82.5614 78.0624 82.9166 78.1808 83.2718 78.1808C83.627 78.1808 83.9526 78.0032 84.219 77.7072C84.4558 77.4408 84.5742 77.204 84.6038 76.9672C84.6334 76.7304 84.5742 76.464 84.3966 76.1679L83.5678 77.1744L82.9462 76.6416L84.3374 75.0135C84.7518 75.3391 85.0478 75.6351 85.2254 75.9607C85.4623 76.3752 85.5214 76.7896 85.4622 77.204C85.3734 77.6184 85.1958 78.0032 84.8998 78.3584C84.4854 78.832 83.9526 79.128 83.3606 79.1872C82.7686 79.2464 82.1173 79.0392 81.5845 78.5656Z" fill="white"/>
<path d="M24.277 82.7689C24.1586 82.8873 24.0402 83.0057 23.8626 83.0649C23.7146 83.1241 23.537 83.1537 23.389 83.1241C23.5962 83.5385 23.537 83.953 23.2114 84.3082C22.945 84.6042 22.6194 84.7818 22.2938 84.8114C21.9386 84.841 21.5833 84.693 21.2577 84.397L19.6593 83.0057L22.6194 79.5424L24.0698 80.8153C24.3954 81.0817 24.573 81.4073 24.6026 81.7625C24.6618 82.1177 24.5434 82.4433 24.277 82.7689ZM22.3826 82.8577L21.6129 82.1769L20.9321 82.9761L21.7609 83.6865C21.8793 83.8049 22.0274 83.8345 22.1458 83.8345C22.2642 83.8345 22.3826 83.7753 22.501 83.6569C22.649 83.5089 22.6786 83.3609 22.649 83.1833C22.5898 83.0945 22.5306 82.9761 22.3826 82.8577ZM23.4778 81.3777L22.797 80.7857L22.1162 81.5553L22.797 82.1473C22.9154 82.2657 23.0634 82.2953 23.1818 82.2953C23.3002 82.2953 23.4186 82.2361 23.537 82.1177C23.6554 81.9993 23.685 81.8513 23.685 81.7329C23.685 81.6145 23.5962 81.4961 23.4778 81.3777Z" fill="white"/>
<path d="M79.4237 80.5489L79.3349 77.7072L79.6013 77.4704L82.6798 80.8449L81.9693 81.4961L80.3117 79.6608L80.4301 81.4961L80.3117 81.6145L78.506 81.3185L80.1637 83.1537L79.4533 83.805L76.3748 80.4305L76.6412 80.1937L79.4237 80.5489Z" fill="white"/>
<path d="M24.6916 86.0251L25.2244 86.4099L24.7804 87.0315L22.9452 85.729L23.3892 85.1074L23.922 85.4922L25.6684 83.0354L25.1948 82.6802L25.6388 82.0585L27.4149 83.3018L26.9709 83.9234L26.4973 83.5682L24.6916 86.0251Z" fill="white"/>
<path d="M77.4106 84.4562L75.901 85.6106L76.0786 86.4099L75.2794 87.0315L75.1906 86.9427L74.1249 82.1177L74.4801 81.8513L78.8611 84.101L78.9499 84.1898L78.1507 84.8114L77.4106 84.4562ZM75.2498 83.1834L75.6642 84.7522L76.6706 83.9826L75.2498 83.1834Z" fill="white"/>
<path d="M28.0957 85.877L28.9837 85.3442L29.931 84.8114L30.819 85.3442L30.7598 85.4626L28.0957 86.8835L27.1781 88.4523L26.3493 87.9491L27.2669 86.3802L27.2077 83.3906L27.2669 83.2722L28.1549 83.805V84.9298L28.0957 85.877Z" fill="white"/>
<path d="M72.4083 83.4793L73.918 86.1138C74.1548 86.5282 74.214 86.9426 74.066 87.3571C73.918 87.7715 73.622 88.0971 73.2075 88.3339C72.7931 88.5707 72.3787 88.6595 71.9347 88.5707C71.5203 88.4819 71.1947 88.2451 70.9283 87.8307L70.6619 87.3571L71.4611 86.913L71.7275 87.3867C71.8459 87.5939 71.9939 87.7123 72.2011 87.7419C72.3787 87.7715 72.5859 87.7419 72.7931 87.6235C73.0003 87.5051 73.1187 87.3571 73.1779 87.1795C73.2371 87.0018 73.2075 86.8242 73.0891 86.617L71.9939 84.7226L71.2835 85.137L70.8691 84.397L72.4083 83.4793Z" fill="white"/>
<path d="M31.0556 89.1035L31.914 89.4587C31.8548 89.6363 31.8844 89.8139 32.0028 89.9916C32.1212 90.1396 32.2989 90.2876 32.5357 90.3764C33.0685 90.6132 33.4237 90.5244 33.5717 90.1988C33.6013 90.11 33.6309 90.0212 33.6013 89.9324C33.6013 89.8436 33.5717 89.7844 33.5125 89.7251C33.4829 89.6659 33.4237 89.6067 33.3349 89.5475C33.2461 89.4883 33.1869 89.4291 33.1277 89.3995C33.0685 89.3699 32.9797 89.3107 32.8909 89.2811C31.914 88.7779 31.5588 88.1563 31.8548 87.4459C32.0324 87.0019 32.3285 86.7355 32.7133 86.6467C33.0981 86.5579 33.5421 86.5875 33.9861 86.7947C34.1933 86.8835 34.3709 87.0019 34.5485 87.1203C34.7261 87.2387 34.8445 87.3867 34.9629 87.5347C35.0813 87.6827 35.1405 87.8899 35.1701 88.0971C35.1997 88.3043 35.1405 88.5115 35.0517 88.7483L34.2229 88.3931C34.2525 88.2155 34.2229 88.0675 34.1341 87.9195C34.0157 87.7715 33.8677 87.6531 33.6901 87.5939C33.5125 87.5051 33.3053 87.4755 33.1277 87.5347C32.9501 87.5939 32.8317 87.6531 32.7429 87.8307C32.6837 88.0083 32.6837 88.1563 32.8021 88.2747C32.9205 88.3931 33.0981 88.5411 33.3349 88.6595C33.5717 88.7779 33.7789 88.9259 33.9269 89.0147C34.0749 89.1331 34.2229 89.2515 34.3709 89.4291C34.4893 89.5771 34.5781 89.7548 34.5781 89.962C34.5781 90.1692 34.5485 90.3764 34.4597 90.6132C34.3709 90.85 34.2229 91.0276 34.0453 91.1756C33.8677 91.3236 33.6901 91.3828 33.4829 91.4124C33.2757 91.442 33.0685 91.442 32.8613 91.4124C32.6541 91.3828 32.4469 91.3236 32.2101 91.2348C31.7364 91.0276 31.3812 90.7612 31.1444 90.3764C30.9076 89.9324 30.878 89.5179 31.0556 89.1035Z" fill="white"/>
<path d="M68.8857 89.7251L69.4778 89.4587L69.8034 90.1691L67.7609 91.146L67.4353 90.4356L68.0273 90.1691L66.7249 87.4459L66.1921 87.7123L65.8665 87.0315L67.8201 86.1138L68.1457 86.7946L67.6129 87.0611L68.8857 89.7251Z" fill="white"/>
<path d="M37.7454 92.6556C37.331 92.8036 36.887 92.8036 36.3838 92.6556C35.9102 92.5076 35.5253 92.2412 35.2885 91.8564C35.0517 91.4716 34.9925 91.0572 35.1405 90.5836L36.0878 87.6827L37.0054 87.9787L36.0582 90.85C35.999 91.0868 35.999 91.2644 36.1174 91.442C36.2358 91.6196 36.4134 91.738 36.6206 91.7972C36.8574 91.8564 37.0646 91.886 37.2422 91.7972C37.4494 91.738 37.5678 91.59 37.627 91.3532L38.5742 88.4819L39.4919 88.7779L38.5446 91.6788C38.4558 92.2116 38.1598 92.5076 37.7454 92.6556Z" fill="white"/>
<path d="M63.2615 91.3236L64.1495 91.0276C64.2087 91.2052 64.3567 91.3236 64.5639 91.3532C64.7712 91.3828 64.9784 91.3532 65.2152 91.294C65.7776 91.1164 65.9848 90.8204 65.8368 90.4652C65.8072 90.3764 65.748 90.2876 65.6888 90.2284C65.6296 90.1692 65.5408 90.1396 65.4816 90.11C65.4224 90.0804 65.3336 90.0804 65.2152 90.11C65.0968 90.11 65.008 90.1396 64.9488 90.1396C64.8896 90.1396 64.8008 90.1692 64.6823 90.1988C63.6167 90.4652 62.9359 90.258 62.6991 89.5179C62.5511 89.0739 62.5807 88.6891 62.8175 88.3339C63.0543 88.0083 63.4095 87.7419 63.8535 87.5939C64.0607 87.5051 64.2679 87.4755 64.4751 87.4459C64.6824 87.4163 64.8896 87.4459 65.0672 87.4755C65.2744 87.5051 65.4224 87.6235 65.6 87.7419C65.748 87.8899 65.8664 88.0675 65.9552 88.3043L65.0968 88.6003C65.008 88.4523 64.8896 88.3635 64.712 88.3043C64.5343 88.2747 64.3567 88.3043 64.1495 88.3635C63.9423 88.4227 63.7943 88.5411 63.6759 88.6891C63.5575 88.8371 63.5279 88.9851 63.5871 89.1627C63.6463 89.3403 63.7647 89.4291 63.9127 89.4587C64.0903 89.4883 64.2975 89.4587 64.5639 89.3995C64.8304 89.3403 65.0672 89.2811 65.2448 89.2811C65.4224 89.2811 65.6296 89.2515 65.8368 89.2811C66.044 89.3107 66.2216 89.3995 66.3696 89.5179C66.5176 89.666 66.636 89.8436 66.7248 90.0804C66.8136 90.3172 66.8432 90.554 66.784 90.7612C66.7544 90.9684 66.6656 91.1756 66.5176 91.3236C66.3696 91.4716 66.2216 91.6196 66.044 91.738C65.8664 91.8564 65.6592 91.9452 65.452 92.034C64.9784 92.2116 64.5343 92.2116 64.0903 92.1228C63.7055 92.034 63.4391 91.7676 63.2615 91.3236Z" fill="white"/>
<path d="M39.492 91.146C39.5808 90.6724 39.788 90.2876 40.084 89.9915C40.38 89.6955 40.7056 89.4883 41.0904 89.3699C41.4752 89.2811 41.8601 89.2515 42.2449 89.3403C42.7185 89.4291 43.1329 89.6659 43.4585 89.9915C43.7841 90.3172 43.9617 90.7316 43.9617 91.2348L43.0145 91.0276C42.8961 90.5836 42.5705 90.2876 42.0673 90.1988C41.6529 90.11 41.3272 90.1692 41.0312 90.406C40.7352 90.6132 40.5576 90.9388 40.4688 91.3532C40.38 91.7676 40.4096 92.1524 40.6168 92.4484C40.7944 92.774 41.0904 92.9516 41.4752 93.0404C41.8009 93.0996 42.0969 93.0996 42.3337 93.0108C42.5705 92.922 42.7481 92.7444 42.9257 92.4484L41.7121 92.182L41.8897 91.3828L43.9913 91.8268C43.9025 92.33 43.7841 92.7444 43.5769 93.0404C43.3105 93.4253 42.9849 93.6917 42.6001 93.8397C42.2153 93.9877 41.7713 93.9877 41.3272 93.8989C40.7056 93.7805 40.2024 93.4548 39.8472 92.9516C39.4328 92.4484 39.344 91.8268 39.492 91.146Z" fill="white"/>
<path d="M61.8702 92.33L60.0349 92.8036L59.8869 93.6324L58.9101 93.8989L58.8805 93.7805L59.7981 88.9259L60.2421 88.8075L63.3798 92.626L63.4094 92.7444L62.4326 93.0108L61.8702 92.33ZM60.3605 90.3171L60.1237 91.9452L61.3373 91.6196L60.3605 90.3171Z" fill="white"/>
<path d="M45.1161 89.9915L45.5601 90.9684L45.1753 90.9092L44.524 89.9027L45.1161 89.9915Z" fill="white"/>
<path d="M56.1574 90.554L54.9734 90.7908L54.8254 89.962L58.1111 89.3107L58.2591 90.1396L57.075 90.3764L57.7855 94.0173L56.8678 94.1949L56.1574 90.554Z" fill="white"/>
<path d="M49.7931 94.3429C49.4379 94.6093 48.9939 94.7277 48.4907 94.7277C47.9875 94.6981 47.5434 94.5501 47.2178 94.2541C46.8626 93.9581 46.7146 93.5733 46.7146 93.07L46.8034 90.0211L47.7803 90.0508L47.6914 93.07C47.6914 93.3069 47.7507 93.4845 47.9283 93.6325C48.0763 93.7805 48.2835 93.8397 48.5203 93.8397C48.7571 93.8397 48.9643 93.7805 49.1123 93.6621C49.2899 93.5437 49.3491 93.3661 49.3787 93.1292L49.4675 90.11L50.4443 90.1396L50.3555 93.1884C50.3555 93.6917 50.1483 94.0765 49.7931 94.3429Z" fill="white"/>
<path d="M54.1148 92.8628L55.21 94.3133V94.4613L54.174 94.5205L53.1676 93.0701L52.3683 93.0997L52.4571 94.6093L51.4803 94.6685L51.2435 90.11L53.1972 90.0212C53.7004 89.9916 54.0852 90.1396 54.4108 90.406C54.7068 90.702 54.8844 91.0572 54.8844 91.4716C54.914 91.7676 54.8548 92.034 54.7068 92.2708C54.5588 92.5372 54.3812 92.7148 54.1148 92.8628ZM52.3091 92.3004L53.286 92.2412C53.4932 92.2412 53.6412 92.1524 53.7596 92.0044C53.878 91.8564 53.9372 91.6788 53.9076 91.5012C53.9076 91.294 53.8188 91.146 53.7004 91.0276C53.582 90.9092 53.4044 90.85 53.1972 90.85L52.2203 90.9092L52.3091 92.3004Z" fill="white"/>
<path fill-rule="evenodd" clip-rule="evenodd" d="M5.88065 39.6582H7.09734L7.93743 38.7891L8.80649 39.6582H10.0232V40.8459L10.8633 41.715L10.0232 42.5551V43.7717H8.80649L7.93743 44.6408L7.09734 43.7717H5.88065V42.5551L5.04056 41.715L5.88065 40.8459V39.6582Z" fill="white"/>
<path fill-rule="evenodd" clip-rule="evenodd" d="M89.5423 39.6582H90.73L91.5991 38.7891L92.4392 39.6582H93.6558V40.8459L94.5249 41.715L93.6558 42.5551V43.7717H92.4392L91.5991 44.6408L90.73 43.7717H89.5423V42.5551L88.6732 41.715L89.5423 40.8459V39.6582Z" fill="white"/>
</g>
<defs>
<clipPath id="clip0_4_329">
<rect width="100" height="100" fill="white"/>
</clipPath>
</defs>
</svg>
