<svg width="24" height="24" viewBox="0 0 24 24" fill="none" xmlns="http://www.w3.org/2000/svg">
<path d="M14.211 15.7742C14.4887 15.7662 14.8046 15.73 15.1269 15.6485C15.1651 15.6389 15.2044 15.6286 15.2447 15.6174C15.4934 15.5485 15.7623 15.4471 16.0393 15.2773C16.1067 15.2369 16.173 15.1936 16.2377 15.1471L16.2354 15.1461C16.4324 15.0027 16.632 14.8214 16.8301 14.5896C16.9114 14.4944 17.0508 14.2934 17.1301 14.1374C16.9469 13.9433 16.6684 13.7837 16.4072 13.6433L16.3793 13.6283C16.2583 13.563 16.0393 13.445 15.8348 13.365C15.8131 13.3565 15.7904 13.3482 15.7672 13.3396C15.5906 13.2745 15.3843 13.1984 15.3635 12.9887C15.3474 12.8268 15.4294 12.7258 15.5271 12.6053C15.5506 12.5763 15.575 12.5463 15.5991 12.514C15.8843 12.1332 16.1526 11.6137 16.1041 10.9104C16.0565 10.22 15.6148 9.68392 14.8753 9.60118C14.7897 9.5916 14.7063 9.58749 14.6253 9.58867C14.5444 9.58749 14.4609 9.5916 14.3753 9.60118C13.6358 9.68392 13.1941 10.22 13.1465 10.9104C13.098 11.6137 13.3664 12.1332 13.6515 12.514C13.6756 12.5463 13.7 12.5763 13.7235 12.6053C13.8212 12.7257 13.9032 12.8268 13.8872 12.9887C13.8663 13.1984 13.66 13.2745 13.4835 13.3396C13.4603 13.3481 13.4375 13.3566 13.4158 13.365C13.2113 13.445 12.9924 13.563 12.8713 13.6283L12.8435 13.6433C12.4558 13.8516 12.0301 14.1023 11.9345 14.4451C11.8176 14.8645 11.7545 15.391 11.7661 15.7742H12.4281C12.6126 15.7742 12.8026 15.7761 12.9961 15.778C13.3933 15.7819 13.8048 15.786 14.211 15.7742Z" fill="white"/>
<path fill-rule="evenodd" clip-rule="evenodd" d="M24 13.3532L23.9993 13.743L23.9981 14.0421L23.9964 14.2942L23.9942 14.5162L23.9916 14.7168L23.9884 14.9012L23.9848 15.0727L23.9807 15.2337L23.9762 15.3859L23.9711 15.5305L23.9655 15.6685L23.9595 15.8008L23.953 15.9279L23.946 16.0504L23.9385 16.1688L23.9306 16.2833L23.9221 16.3944L23.9132 16.5023L23.9037 16.6072L23.8938 16.7093L23.8834 16.8088L23.8725 16.906L23.8612 17.0008L23.8493 17.0935L23.837 17.1842L23.8241 17.2729L23.8108 17.3599L23.797 17.445L23.7826 17.5285L23.7678 17.6104L23.7525 17.6908L23.7367 17.7698L23.7204 17.8473L23.7036 17.9234L23.6863 17.9983L23.6686 18.0719L23.6503 18.1442L23.6315 18.2154L23.6122 18.2854L23.5924 18.3543L23.5721 18.4221L23.5513 18.4889L23.53 18.5546L23.5081 18.6194L23.4858 18.6832L23.4629 18.746L23.4396 18.8079L23.4157 18.8688L23.3913 18.9289L23.3664 18.9881L23.341 19.0465L23.315 19.104L23.2885 19.1607L23.2615 19.2166L23.234 19.2717L23.2059 19.326L23.1773 19.3796L23.1482 19.4324L23.1185 19.4844L23.0883 19.5357L23.0576 19.5864L23.0263 19.6362L22.9944 19.6854L22.962 19.7339L22.9291 19.7818L22.8956 19.8289L22.8615 19.8754L22.8269 19.9212L22.7917 19.9664L22.7559 20.0109L22.7196 20.0548L22.6827 20.098L22.6452 20.1407L22.6071 20.1827L22.5684 20.2241L22.5291 20.2649L22.4892 20.3051L22.4487 20.3447L22.4077 20.3837L22.3659 20.4221L22.3236 20.4599L22.2807 20.4972L22.2371 20.5339L22.1928 20.57L22.148 20.6055L22.1025 20.6405L22.0563 20.6749L22.0094 20.7088L21.9619 20.7421L21.9137 20.7749L21.8648 20.8072L21.8152 20.8388L21.7649 20.87L21.7139 20.9006L21.6622 20.9307L21.6097 20.9603L21.5565 20.9893L21.5025 21.0178L21.4477 21.0458L21.3922 21.0732L21.3359 21.1002L21.2787 21.1266L21.2208 21.1525L21.162 21.1779L21.1023 21.2028L21.0417 21.2272L20.9803 21.251L20.918 21.2744L20.8547 21.2973L20.7905 21.3196L20.7253 21.3415L20.6591 21.3628L20.5919 21.3837L20.5236 21.4041L20.4543 21.424L20.3839 21.4433L20.3123 21.4622L20.2395 21.4806L20.1656 21.4985L20.0903 21.5159L20.0138 21.5329L19.936 21.5493L19.8568 21.5653L19.7761 21.5808L19.6939 21.5957L19.6102 21.6103L19.5249 21.6243L19.4378 21.6378L19.349 21.6509L19.2583 21.6635L19.1657 21.6756L19.0709 21.6872L18.974 21.6984L18.8748 21.709L18.7731 21.7192L18.6688 21.7289L18.5617 21.7382L18.4515 21.747L18.3381 21.7553L18.2211 21.7631L18.1003 21.7704L17.9752 21.7773L17.8455 21.7837L17.7106 21.7896L17.5698 21.7951L17.4223 21.8001L17.2672 21.8046L17.1032 21.8086L16.9286 21.8122L16.741 21.8153L16.5371 21.8179L16.3119 21.8201L16.0568 21.8217L15.7555 21.823L15.3673 21.8237L8.70956 21.8238L8.29879 21.8231L7.98756 21.822L7.72653 21.8204L7.49723 21.8183L7.29036 21.8157L7.10044 21.8127L6.92391 21.8092L6.75833 21.8052L6.60191 21.8008L6.45332 21.7959L6.31152 21.7905L6.17569 21.7847L6.04517 21.7783L5.9194 21.7715L5.79793 21.7643L5.68038 21.7565L5.56641 21.7483L5.45576 21.7396L5.34816 21.7304L5.2434 21.7208L5.1413 21.7107L5.0417 21.7001L4.94443 21.689L4.84937 21.6775L4.75639 21.6654L4.6654 21.6529L4.57628 21.6399L4.48896 21.6265L4.40335 21.6125L4.31937 21.5981L4.23696 21.5832L4.15606 21.5678L4.07661 21.5519L3.99855 21.5355L3.92183 21.5187L3.84641 21.5013L3.77225 21.4835L3.69931 21.4652L3.62754 21.4464L3.55692 21.4271L3.48741 21.4073L3.41898 21.387L3.3516 21.3662L3.28525 21.3449L3.2199 21.3231L3.15553 21.3009L3.09211 21.2781L3.02962 21.2548L2.96805 21.231L2.90737 21.2067L2.84756 21.1819L2.78862 21.1566L2.73052 21.1308L2.67324 21.1044L2.61678 21.0776L2.56112 21.0502L2.50624 21.0223L2.45213 20.9939L2.39879 20.9649L2.3462 20.9354L2.29434 20.9054L2.24321 20.8749L2.1928 20.8438L2.1431 20.8122L2.0941 20.7801L2.04579 20.7474L1.99816 20.7142L1.95121 20.6804L1.90493 20.646L1.8593 20.6111L1.81433 20.5757L1.77 20.5396L1.72631 20.503L1.68326 20.4659L1.64083 20.4281L1.59903 20.3898L1.55784 20.3509L1.51726 20.3114L1.47728 20.2713L1.43791 20.2306L1.39914 20.1893L1.36095 20.1474L1.32335 20.1049L1.28634 20.0617L1.24991 20.0179L1.21405 19.9735L1.17876 19.9284L1.14403 19.8827L1.10987 19.8363L1.07628 19.7893L1.04324 19.7416L1.01076 19.6932L0.978823 19.6441L0.94744 19.5943L0.916602 19.5439L0.886307 19.4926L0.856553 19.4407L0.827335 19.388L0.798651 19.3346L0.770503 19.2804L0.742886 19.2254L0.715797 19.1697L0.689235 19.1131L0.663198 19.0557L0.637685 18.9975L0.612689 18.9384L0.588213 18.8785L0.564255 18.8176L0.540813 18.7559L0.517881 18.6932L0.495467 18.6296L0.473558 18.565L0.452163 18.4994L0.431275 18.4328L0.410888 18.3652L0.391012 18.2965L0.371639 18.2266L0.352768 18.1556L0.334396 18.0835L0.316527 18.0101L0.299156 17.9354L0.282282 17.8595L0.26591 17.7822L0.250029 17.7035L0.234645 17.6234L0.219755 17.5417L0.205358 17.4584L0.191456 17.3735L0.178046 17.2869L0.165124 17.1984L0.152695 17.1081L0.140753 17.0157L0.129303 16.9212L0.118338 16.8245L0.107865 16.7253L0.0978769 16.6236L0.0883768 16.5192L0.0793614 16.4118L0.0708307 16.3013L0.0627883 16.1873L0.0552306 16.0696L0.048154 15.9477L0.0415656 15.8214L0.0354584 15.69L0.0298359 15.5529L0.0246981 15.4094L0.0200414 15.2585L0.0158694 15.099L0.0121749 14.9293L0.00896873 14.7471L0.00624005 14.5494L0.00399608 14.3313L0.00223321 14.0848L0.000951447 13.795L0.000150795 13.4254L0 11.5491L0.000646266 11.1351L0.00177364 10.8258L0.00338212 10.5677L0.00547172 10.3417L0.00804601 10.138L0.0111014 9.95133L0.0146379 9.77793L0.0186591 9.61538L0.0231614 9.46191L0.0281485 9.31617L0.0336166 9.17714L0.0395694 9.04401L0.0460033 8.9161L0.0529256 8.79287L0.0603289 8.67388L0.0682169 8.55875L0.0765932 8.44714L0.0854507 8.33879L0.0947964 8.23344L0.10463 8.13088L0.114949 8.03094L0.125756 7.93344L0.137051 7.83824L0.148839 7.7452L0.16111 7.65421L0.173874 7.56516L0.18713 7.47795L0.200877 7.39251L0.215117 7.30874L0.229848 7.22657L0.245075 7.14595L0.260797 7.06679L0.277015 6.98906L0.293728 6.91269L0.31094 6.83764L0.328651 6.76386L0.346862 6.69131L0.365571 6.61995L0.384787 6.54975L0.404505 6.48067L0.424726 6.41268L0.445453 6.34574L0.46669 6.27984L0.488433 6.21494L0.510686 6.15101L0.533453 6.08805L0.556733 6.02602L0.580526 5.9649L0.604836 5.90468L0.629664 5.84533L0.655015 5.78683L0.680884 5.72918L0.70728 5.67235L0.734201 5.61633L0.761649 5.56111L0.789629 5.50667L0.81814 5.45299L0.847186 5.40008L0.876771 5.3479L0.906894 5.29646L0.937559 5.24574L0.968767 5.19574L1.00053 5.14644L1.03283 5.09783L1.0657 5.0499L1.09911 5.00265L1.13309 4.95607L1.16763 4.91015L1.20274 4.86488L1.23842 4.82025L1.27467 4.77626L1.3115 4.73291L1.34891 4.69018L1.38691 4.64807L1.4255 4.60657L1.46468 4.56568L1.50446 4.52539L1.54484 4.4857L1.58584 4.4466L1.62745 4.40809L1.66968 4.37016L1.71253 4.33281L1.75601 4.29603L1.80014 4.25983L1.84491 4.22419L1.89032 4.18911L1.93639 4.15459L1.98313 4.12062L2.03054 4.08721L2.07864 4.05434L2.12742 4.02202L2.1769 3.99024L2.22708 3.959L2.27798 3.9283L2.3296 3.89813L2.38196 3.86849L2.43506 3.83938L2.48892 3.8108L2.54355 3.78273L2.59896 3.75519L2.65517 3.72817L2.71218 3.70166L2.77002 3.67567L2.8287 3.6502L2.88823 3.62523L2.94862 3.60077L3.00991 3.57682L3.0721 3.55337L3.13522 3.53043L3.19929 3.50799L3.26433 3.48605L3.33036 3.46461L3.3974 3.44366L3.4655 3.42322L3.53466 3.40326L3.60492 3.3838L3.67632 3.36484L3.74889 3.34636L3.82266 3.32838L3.89767 3.31088L3.97397 3.29387L4.0516 3.27735L4.1306 3.26131L4.21103 3.24576L4.29296 3.23069L4.37642 3.21611L4.46151 3.202L4.54828 3.18838L4.63681 3.17524L4.7272 3.16258L4.81953 3.1504L4.91392 3.1387L5.01047 3.12747L5.10931 3.11672L5.2106 3.10645L5.31449 3.09666L5.42116 3.08734L5.53082 3.07849L5.6437 3.07012L5.76008 3.06223L5.88026 3.0548L6.00461 3.04785L6.13357 3.04138L6.26764 3.03538L6.40746 3.02984L6.55379 3.02479L6.70758 3.0202L6.87008 3.01608L7.04289 3.01244L7.22823 3.00927L7.42922 3.00657L7.6506 3.00434L7.90013 3.00258L8.19234 3.00129L8.5615 3.00047L15.2068 3.00024L15.6447 3.00084L15.967 3.0019L16.2344 3.00344L16.468 3.00544L16.678 3.00792L16.8704 3.01087L17.0488 3.01428L17.216 3.01817L17.3738 3.02254L17.5236 3.02737L17.6664 3.03267L17.8031 3.03845L17.9345 3.0447L18.0609 3.05142L18.1831 3.05862L18.3012 3.06629L18.4157 3.07443L18.5269 3.08305L18.635 3.09214L18.7402 3.10171L18.8427 3.11176L18.9427 3.12228L19.0403 3.13327L19.1357 3.14475L19.229 3.1567L19.3203 3.16913L19.4097 3.18204L19.4973 3.19544L19.5832 3.20931L19.6674 3.22366L19.7501 3.2385L19.8312 3.25382L19.9109 3.26962L19.9892 3.28591L20.0661 3.30269L20.1417 3.31995L20.2161 3.33771L20.2892 3.35595L20.3612 3.37468L20.432 3.3939L20.5017 3.41362L20.5703 3.43383L20.6378 3.45454L20.7043 3.47574L20.7698 3.49744L20.8344 3.51964L20.8979 3.54235L20.9606 3.56555L21.0223 3.58926L21.0831 3.61348L21.143 3.6382L21.2021 3.66344L21.2604 3.68918L21.3178 3.71544L21.3744 3.74222L21.4301 3.76951L21.4851 3.79732L21.5394 3.82566L21.5928 3.85452L21.6455 3.8839L21.6975 3.91382L21.7488 3.94427L21.7993 3.97525L21.8491 4.00677L21.8982 4.03883L21.9466 4.07144L21.9944 4.10459L22.0414 4.13829L22.0878 4.17255L22.1335 4.20736L22.1786 4.24273L22.2231 4.27866L22.2668 4.31517L22.31 4.35224L22.3525 4.38989L22.3944 4.42813L22.4357 4.46694L22.4764 4.50635L22.5165 4.54635L22.5559 4.58696L22.5948 4.62816L22.6331 4.66998L22.6708 4.71241L22.7079 4.75547L22.7444 4.79915L22.7804 4.84347L22.8157 4.88843L22.8505 4.93404L22.8848 4.98031L22.9185 5.02724L22.9516 5.07484L22.9842 5.12312L23.0162 5.17209L23.0477 5.22176L23.0786 5.27214L23.109 5.32323L23.1388 5.37506L23.1681 5.42762L23.1969 5.48093L23.2251 5.535L23.2528 5.58985L23.28 5.64549L23.3066 5.70193L23.3328 5.75918L23.3584 5.81727L23.3834 5.87621L23.408 5.93602L23.432 5.9967L23.4556 6.0583L23.4786 6.12081L23.5011 6.18427L23.5231 6.2487L23.5445 6.31413L23.5655 6.38056L23.586 6.44805L23.6059 6.51661L23.6254 6.58627L23.6443 6.65707L23.6628 6.72905L23.6807 6.80223L23.6982 6.87667L23.7151 6.9524L23.7316 7.02948L23.7476 7.10795L23.763 7.18786L23.778 7.26928L23.7924 7.35228L23.8064 7.43691L23.8199 7.52327L23.8329 7.61142L23.8454 7.70147L23.8574 7.79352L23.869 7.88767L23.88 7.98406L23.8906 8.08282L23.9006 8.1841L23.9102 8.28809L23.9193 8.39498L23.9279 8.505L23.936 8.61841L23.9437 8.73552L23.9508 8.85667L23.9575 8.98227L23.9637 9.11284L23.9694 9.24896L23.9746 9.39138L23.9793 9.54101L23.9836 9.69903L23.9873 9.86699L23.9906 10.047L23.9934 10.242L23.9958 10.4564L23.9976 10.6976L23.999 10.979L23.9998 11.3313L24 13.3532ZM9.88236 17.5886H13.6471C17.2138 17.5886 19.2943 15.3701 19.2943 12.3825C19.2943 9.36527 17.2421 7.23549 13.7037 7.23549H9.88236V17.5886ZM7.99997 17.5886H5.17639V7.23549H7.99997V17.5886Z" fill="white"/>
</svg>
