<svg width="20" height="20" viewBox="0 0 20 20" fill="none" xmlns="http://www.w3.org/2000/svg">
<path fill-rule="evenodd" clip-rule="evenodd" d="M17.0717 2.92835C15.2648 1.1215 12.7648 0 10 0C7.2352 0 4.7352 1.1215 2.92835 2.92835C1.1215 4.7352 0 7.2352 0 10C0 12.7648 1.1215 15.2648 2.92835 17.0717C4.7352 18.8785 7.2352 20 10 20C12.7648 20 15.2648 18.8785 17.0717 17.0717C18.8785 15.2648 20 12.7648 20 10C20 7.2352 18.8863 4.7352 17.0717 2.92835Z" fill="#404C75"/>
<path fill-rule="evenodd" clip-rule="evenodd" d="M17.0719 2.92895C16.5034 2.36041 15.8725 1.86197 15.1794 1.44141L0.0859375 11.309C0.381888 13.5442 1.40993 15.5536 2.92862 17.0722C4.73547 18.8791 7.23547 20.0006 10.0003 20.0006C10.2183 20.0006 10.4286 19.9928 10.6389 19.9772L18.4115 4.58004C18.0221 3.98814 17.5781 3.42739 17.0719 2.92895Z" fill="#5D72A7"/>
<path fill-rule="evenodd" clip-rule="evenodd" d="M2.51504 8.29492C2.96676 8.5052 3.14588 9.21393 3.07579 10.094C2.95897 11.5582 3.27049 13.4507 5.1085 14.3853C4.81255 13.3417 3.5976 13.0457 4.34526 11.5426C4.43093 11.932 4.52439 11.9242 4.61785 12.0955C6.47143 15.4678 9.5166 13.9024 9.89043 19.0971C8.58202 17.0332 5.06177 16.3712 3.44962 14.6579C2.22688 13.365 1.6895 11.6438 2.28919 9.11268C2.35149 8.84788 2.44495 8.71548 2.51504 8.29492Z" fill="white"/>
<path fill-rule="evenodd" clip-rule="evenodd" d="M10.5596 7.87347C5.4895 6.03547 5.13904 11.0822 9.111 14.7816C6.32284 13.8548 2.90383 9.95291 5.21692 6.90774C7.19511 4.67254 9.29013 6.01989 10.5596 7.87347Z" fill="white"/>
<path fill-rule="evenodd" clip-rule="evenodd" d="M10.5234 9.03361C14.4097 8.15355 14.916 12.0243 10.9752 14.8436C14.0281 14.018 16.4502 10.9884 14.5733 8.51959C13.4206 7.24234 11.5437 7.53828 10.5234 9.03361Z" fill="white"/>
<path fill-rule="evenodd" clip-rule="evenodd" d="M8.69045 2.32812C9.54714 2.32812 10.2481 3.02127 10.2481 3.88576C10.2481 4.74246 9.55493 5.44339 8.69045 5.44339C7.83375 5.44339 7.13281 4.75024 7.13281 3.88576C7.1406 3.02906 7.83375 2.32812 8.69045 2.32812Z" fill="white"/>
<path fill-rule="evenodd" clip-rule="evenodd" d="M12.4689 4.92188C13.1309 4.92188 13.6605 5.45926 13.6605 6.11346C13.6605 6.77546 13.1231 7.30505 12.4689 7.30505C11.8069 7.30505 11.2773 6.76767 11.2773 6.11346C11.2773 5.45147 11.8069 4.92188 12.4689 4.92188Z" fill="white"/>
<path fill-rule="evenodd" clip-rule="evenodd" d="M8.64535 9.97656C8.41171 11.9158 9.14379 13.7538 10.1095 14.9921C10.203 12.8582 10.8494 11.0981 11.8852 10.0856C11.1687 10.3893 10.3198 11.0202 9.83694 12.3364C9.3385 11.8691 9.09707 11.5108 8.64535 9.97656Z" fill="white"/>
<path fill-rule="evenodd" clip-rule="evenodd" d="M9.96152 9.7967C10.2419 9.86679 10.4132 10.1861 10.3276 10.5054C10.2497 10.8325 9.95373 11.035 9.67336 10.9649C9.39298 10.8948 9.22164 10.5755 9.30731 10.2562C9.3852 9.93689 9.68115 9.72661 9.96152 9.7967Z" fill="white"/>
<path fill-rule="evenodd" clip-rule="evenodd" d="M17.5941 8.29492C17.1424 8.5052 16.9633 9.21393 17.0334 10.094C17.1502 11.5582 16.8387 13.4507 15.0007 14.3853C15.2966 13.3417 16.5116 13.0457 15.7639 11.5426C15.6783 11.932 15.5848 11.9242 15.4913 12.0955C13.6378 15.4678 10.5926 13.9024 10.2188 19.0971C11.5272 17.0332 15.0474 16.3712 16.6596 14.6579C17.8823 13.365 18.4197 11.6438 17.82 9.11268C17.7577 8.84788 17.6642 8.71548 17.5941 8.29492Z" fill="white"/>
</svg>
