<svg width="20" height="21" viewBox="0 0 20 21" fill="none" xmlns="http://www.w3.org/2000/svg">
<path fill-rule="evenodd" clip-rule="evenodd" d="M9 2.25C4.99594 2.25 1.75 5.49594 1.75 9.5C1.75 13.5041 4.99594 16.75 9 16.75C10.9606 16.75 12.7395 15.9717 14.0445 14.7073C14.0669 14.6767 14.092 14.6474 14.1197 14.6197C14.1474 14.592 14.1767 14.5669 14.2073 14.5445C15.4717 13.2395 16.25 11.4606 16.25 9.5C16.25 5.49594 13.0041 2.25 9 2.25ZM15.6949 15.1342C16.9773 13.612 17.75 11.6462 17.75 9.5C17.75 4.66751 13.8325 0.75 9 0.75C4.16751 0.75 0.25 4.66751 0.25 9.5C0.25 14.3325 4.16751 18.25 9 18.25C11.1462 18.25 13.112 17.4773 14.6342 16.1949L18.4697 20.0303C18.7626 20.3232 19.2374 20.3232 19.5303 20.0303C19.8232 19.7374 19.8232 19.2626 19.5303 18.9697L15.6949 15.1342Z" fill="#222222" fill-opacity="0.8"/>
</svg>
